<svg xmlns="http://www.w3.org/2000/svg" xmlns:xlink="http://www.w3.org/1999/xlink" viewBox="0 0 341.896 338.896">
  <defs>
    <style>
      g {
        pointer-events: bounding-box;
      }
      .cls-1 {
        fill: none;
      }

      .cls-2 {
        fill: #fff;
      }

      .cls-3 {
        fill: #ffe660;
      }

      .cls-4 {
        fill: #fde35d;
      }

      .cls-5 {
        clip-path: url(#clip-path);
      }

      .cls-6 {
        fill: #5c5d5e;
      }

      .cls-7 {
        clip-path: url(#clip-path-2);
      }

      .cls-8 {
        fill: #5b5d5e;
      }

      .cls-9 {
        filter: url(#front-circle);
      }

      .cls-10 {
        filter: url(#circle);
      }

      .cls-11 {
        filter: url(#back-circle);
      }
    </style>
    <filter id="back-circle" x="0" y="0" width="341.896" height="338.896" filterUnits="userSpaceOnUse">
      <feOffset input="SourceAlpha"/>
      <feGaussianBlur stdDeviation="3" result="blur"/>
      <feFlood flood-opacity="0.161"/>
      <feComposite operator="in" in2="blur"/>
      <feComposite in="SourceGraphic"/>
    </filter>
    <filter id="circle" x="32.896" y="31.896" width="278" height="278" filterUnits="userSpaceOnUse">
      <feOffset input="SourceAlpha"/>
      <feGaussianBlur stdDeviation="3" result="blur-2"/>
      <feFlood flood-color="#ffe660"/>
      <feComposite operator="in" in2="blur-2"/>
      <feComposite in="SourceGraphic"/>
    </filter>
    <clipPath id="clip-path">
      <path id="Path_1082" data-name="Path 1082" class="cls-1" d="M0-10.756H45.063V0H0Z"/>
    </clipPath>
    <clipPath id="clip-path-2">
      <path id="Path_1069" data-name="Path 1069" class="cls-1" d="M0-9.833H32.5V0H0Z"/>
    </clipPath>
    <filter id="front-circle" x="46.896" y="43.896" width="250" height="253" filterUnits="userSpaceOnUse">
      <feOffset input="SourceAlpha"/>
      <feGaussianBlur stdDeviation="3" result="blur-3"/>
      <feFlood flood-opacity="0.161"/>
      <feComposite operator="in" in2="blur-3"/>
      <feComposite in="SourceGraphic"/>
    </filter>
  </defs>
  <g id="Group_2926" data-name="Group 2926" transform="translate(13 -401)">
    <g id="Group_2980" data-name="Group 2980">
      <g class="cls-11" transform="matrix(1, 0, 0, 1, -13, 401)">
        <ellipse id="back-circle-2" data-name="back-circle" class="cls-2" cx="161.948" cy="160.448" rx="161.948" ry="160.448" transform="translate(9 9)"/>
      </g>
      <g id="Group_2979" data-name="Group 2979" transform="translate(19530.896 10660.896)">
        <g class="cls-10" transform="matrix(1, 0, 0, 1, -19543.9, -10259.9)">
          <path id="circle-2" data-name="circle" class="cls-3" d="M130,0A130,130,0,1,1,0,130,130,130,0,0,1,130,0Z" transform="translate(41.9 40.9)"/>
        </g>
        <g id="anos25_active"  class="" transform="matrix(0.438, 0.899, -0.899, 0.438, -19328.42, -10359.163)">
          <g id="Group_3275" data-name="Group 3275">
            <path id="Path_1440" data-name="Path 1440" class="cls-4" d="M205.17,19.83c-2.43.35-4.85.76-7.27,1.25-.14-.3-.29-.61-.43-.91q1.545-2.085,3.2-4.13c.72-.9,1.53-1.99,1.34-3.13a2.1,2.1,0,0,0-2.71-1.59,3.387,3.387,0,0,0-2.51,2.16c-.34-.22-.68-.45-1.03-.67a4.137,4.137,0,0,1,3.43-2.68c2.35-.41,4.11.58,4.37,2.38s-1.2,3.34-1.78,4.05c-.8.99-1.59,1.99-2.35,2.99q2.775-.525,5.55-.91C205.04,19.04,205.11,19.43,205.17,19.83Z"/>
            <path id="Path_1441" data-name="Path 1441" class="cls-4" d="M210.13,19.4a4.29,4.29,0,0,1-3.79-1.3c.25-.32.49-.63.74-.94a3.379,3.379,0,0,0,2.9,1.06,2.314,2.314,0,1,0-.51-4.57,3.393,3.393,0,0,0-1.93.77c-.28-.11-.57-.22-.86-.33.12-1.65.25-3.3.39-4.94q2.94-.345,5.88-.57l.09,1.17c-1.55.12-3.1.26-4.65.43-.1.93-.2,1.86-.29,2.79a4.147,4.147,0,0,1,1.58-.44c1.86-.19,3.97.78,4.13,3.04C213.99,17.82,212.14,19.18,210.13,19.4Z"/>
            <path id="Path_1442" data-name="Path 1442" class="cls-4" d="M224.92,18.52c-.48-.01-.97-.01-1.45-.01-.01-.3-.01-.6-.02-.9a3.216,3.216,0,0,1-2.36,1.09,2.366,2.366,0,0,1-2.65-2.13c-.06-1.39,1.14-2.15,2.92-2.26.68-.04,1.37-.07,2.05-.09v-.29c0-1.08-.81-1.62-1.94-1.6a4.986,4.986,0,0,0-2.33.67c-.17-.31-.34-.63-.51-.94a6.218,6.218,0,0,1,2.92-.79,3.532,3.532,0,0,1,2.6.8,2.747,2.747,0,0,1,.81,2.32C224.95,15.76,224.94,17.14,224.92,18.52Zm-1.48-3.42-1.78.12c-1.24.08-1.72.59-1.7,1.27s.59,1.21,1.58,1.2a2.438,2.438,0,0,0,1.9-1.05Z"/>
            <path id="Path_1443" data-name="Path 1443" class="cls-4" d="M233.3,18.88c-.5-.04-1-.07-1.5-.1.09-1.32.18-2.64.27-3.97.08-1.2-.09-2.12-1.49-2.19-1.46-.07-2.05,1.04-2.1,2.4-.05,1.19-.09,2.39-.14,3.58-.5-.02-1-.03-1.5-.05.07-2.37.13-4.75.19-7.12.53.01,1.06.03,1.59.05-.02.37-.04.75-.06,1.12h.05a2.667,2.667,0,0,1,2.45-1.15c2.24.13,2.72,1.52,2.58,3.22C233.53,16.08,233.42,17.48,233.3,18.88Zm-.11-9.92a1.55,1.55,0,0,1-1.63,1.28,2.58,2.58,0,0,1-1.19-.39,2.2,2.2,0,0,0-.96-.42.747.747,0,0,0-.76.62l-.78-.18a1.545,1.545,0,0,1,1.6-1.34,2.4,2.4,0,0,1,1.18.4,2.439,2.439,0,0,0,.97.41.781.781,0,0,0,.78-.58C232.67,8.83,232.93,8.89,233.19,8.96Z"/>
            <path id="Path_1444" data-name="Path 1444" class="cls-4" d="M238.72,19.57a3.78,3.78,0,0,1-3.59-4.09c.19-2.2,2.15-3.56,4.51-3.28s3.94,2.05,3.58,4.23A3.844,3.844,0,0,1,238.72,19.57Zm.79-6.21a2.394,2.394,0,0,0-2.8,2.22,2.4,2.4,0,0,0,2.18,2.77,2.453,2.453,0,0,0,2.8-2.19A2.387,2.387,0,0,0,239.51,13.36Z"/>
            <path id="Path_1445" data-name="Path 1445" class="cls-4" d="M248.56,20.47a3.41,3.41,0,0,1-2.19.23,3.714,3.714,0,0,1-2.67-1.74c.29-.24.58-.48.87-.71a3.216,3.216,0,0,0,2.03,1.38c.69.12,1.48.03,1.64-.74s-.99-1.23-1.48-1.48a5.861,5.861,0,0,1-.97-.55,1.85,1.85,0,0,1-.92-1.89c.21-1.3,1.59-1.82,2.99-1.57a3.574,3.574,0,0,1,2.49,1.42c-.28.25-.56.49-.84.74a2.976,2.976,0,0,0-1.82-1.12c-.76-.14-1.3.08-1.41.65s.6.95,1.31,1.31c.4.21.67.35.97.53a3,3,0,0,1,.78.67,1.642,1.642,0,0,1,.33,1.41A2.058,2.058,0,0,1,248.56,20.47Z"/>
          </g>
        </g>
        <g id="anos25" transform="matrix(0.438, 0.899, -0.899, 0.438, -19258.18, -10169.76)">
          <g id="Group_2977" data-name="Group 2977" class="cls-5">
            <g id="Group_2971" data-name="Group 2971" transform="translate(7.71 -1.028)">
              <path id="Path_1076" data-name="Path 1076" class="cls-6" d="M0,0C-1.988.283-3.974.633-5.959,1.028l-.25-.481c.9-1.269,1.844-2.528,2.824-3.772C-2.859-3.909-2-5.031-2.178-6.189a2.11,2.11,0,0,0-2.7-1.623,2.692,2.692,0,0,0-2.18,2.019c-.215-.068-.432-.137-.648-.2A3.281,3.281,0,0,1-4.992-8.428c1.857-.324,3.368.516,3.6,2.094S-2.537-3.3-2.941-2.771Q-4.117-1.285-5.215.217-2.661-.272-.1-.644L0,0"/>
            </g>
            <g id="Group_2972" data-name="Group 2972" transform="translate(11.794 -1.38)">
              <path id="Path_1077" data-name="Path 1077" class="cls-6" d="M0,0A3.318,3.318,0,0,1-3.06-1.17c.165-.154.331-.3.5-.457A2.751,2.751,0,0,0,0-.641,2.322,2.322,0,0,0,2.246-3.175,2.312,2.312,0,0,0-.517-5.229a2.7,2.7,0,0,0-1.65.668c-.176-.064-.354-.132-.53-.2.13-1.39.278-2.786.438-4.179q2.291-.27,4.576-.44c.016.207.033.414.048.622Q.384-8.6-1.6-8.383q-.19,1.472-.359,2.947A3.668,3.668,0,0,1-.513-5.858,3,3,0,0,1,3.014-3.236,3.081,3.081,0,0,1,0,0"/>
            </g>
            <g id="Group_2973" data-name="Group 2973" transform="translate(23.274 -5.18)">
              <path id="Path_1078" data-name="Path 1078" class="cls-6" d="M0,0C-.616.035-1.23.071-1.844.114-3.2.2-3.613.767-3.592,1.414s.561,1.216,1.58,1.2A2.5,2.5,0,0,0,0,1.494C0,.992,0,.5,0,0M.71,3.06c-.241,0-.48,0-.719,0,0-.284,0-.565,0-.845a2.852,2.852,0,0,1-2.13.99A1.96,1.96,0,0,1-4.311,1.438C-4.354.405-3.541-.357-1.783-.445-1.187-.476-.593-.5,0-.521,0-.628,0-.739,0-.846A1.617,1.617,0,0,0-1.854-2.485,3.73,3.73,0,0,0-3.8-1.922c-.1-.163-.2-.317-.3-.485a4.236,4.236,0,0,1,2.211-.664A2.628,2.628,0,0,1,.12-2.4,2.318,2.318,0,0,1,.746-.517C.734.677.721,1.866.71,3.06"/>
            </g>
            <g id="Group_2974" data-name="Group 2974" transform="translate(30.784 -10.339)">
              <path id="Path_1079" data-name="Path 1079" class="cls-6" d="M0,0A1.13,1.13,0,0,1-1.191.928,2.154,2.154,0,0,1-2.168.59,2.1,2.1,0,0,0-3.03.227a.617.617,0,0,0-.636.521C-3.824.7-3.984.646-4.142.6a1.121,1.121,0,0,1,1.18-.958,1.986,1.986,0,0,1,.972.331,2.226,2.226,0,0,0,.862.371A.651.651,0,0,0-.462-.16c.154.053.309.106.462.16M.065,8.5l-.719-.051c.089-1.187.172-2.379.257-3.566.071-.968-.046-1.989-1.48-2.069S-4.038,3.857-4.086,5.286Q-4.14,6.78-4.2,8.274c-.235-.006-.471-.014-.706-.022.058-2.008.12-4.018.173-6.029.249.006.5.016.749.023Q-4,2.8-4.019,3.363a2.321,2.321,0,0,1,2.2-1.129C.1,2.344.463,3.488.35,4.912.255,6.107.162,7.307.065,8.5"/>
            </g>
            <g id="Group_2975" data-name="Group 2975" transform="translate(36.238 -6.896)">
              <path id="Path_1080" data-name="Path 1080" class="cls-6" d="M0,0A2.444,2.444,0,0,0-2.857,2.246,2.453,2.453,0,0,0-.635,5.033,2.515,2.515,0,0,0,2.244,2.85,2.413,2.413,0,0,0,0,0M-.713,5.64A3.168,3.168,0,0,1-3.63,2.2,3.169,3.169,0,0,1,.072-.582,3.128,3.128,0,0,1,3.009,2.985,3.253,3.253,0,0,1-.713,5.64"/>
            </g>
            <g id="Group_2976" data-name="Group 2976" transform="translate(41.914 -0.306)">
              <path id="Path_1081" data-name="Path 1081" class="cls-6" d="M0,0A2.639,2.639,0,0,1-2.087-1.541l.574-.3A2.249,2.249,0,0,0,.146-.6c.787.139,1.559-.072,1.723-.843S.935-2.695.409-2.972s-1.67-.86-1.489-1.941a1.816,1.816,0,0,1,2.3-1.247A2.64,2.64,0,0,1,3.149-4.936l-.541.32A2.105,2.105,0,0,0,1.087-5.6c-.747-.132-1.336.108-1.443.728S.19-3.869.94-3.472c.765.4,1.9,1.027,1.652,2.146A2.08,2.08,0,0,1,0,0"/>
            </g>
          </g>
        </g>
        <g id="anos10_active" class="" transform="translate(-19343.074 -10238.015) rotate(21)">
          <g id="Group_3285" data-name="Group 3285">
            <path id="Path_1464" data-name="Path 1464" class="cls-4" d="M5.8,11.89c-.49.09-.98.17-1.47.27Q3.385,7.6,2.5,3.03L.22,3.48C.15,3.13.07,2.78,0,2.44c1.3-.27,2.6-.51,3.9-.74Q4.815,6.8,5.8,11.89Z"/>
            <path id="Path_1465" data-name="Path 1465" class="cls-4" d="M12.66,11.05C9.78,11.4,8.12,9,7.68,6.35S8.18.85,11.35.47c3.19-.37,4.74,2.18,4.96,4.87C16.53,8.01,15.54,10.72,12.66,11.05ZM11.49,1.68c-1.88.22-2.57,2.06-2.22,4.4s1.48,3.91,3.22,3.7,2.43-1.99,2.2-4.34S13.38,1.46,11.49,1.68Z"/>
            <path id="Path_1466" data-name="Path 1466" class="cls-4" d="M27.14,10.03c-.48,0-.97,0-1.46.01l-.03-.9a3.222,3.222,0,0,1-2.35,1.12,2.392,2.392,0,0,1-2.69-2.1c-.08-1.39,1.11-2.17,2.9-2.29l2.06-.12V5.46c-.01-1.08-.83-1.61-1.97-1.58a4.982,4.982,0,0,0-2.33.7c-.17-.31-.35-.62-.52-.94a6.165,6.165,0,0,1,2.92-.83,3.564,3.564,0,0,1,2.62.77,2.777,2.777,0,0,1,.84,2.31C27.15,7.27,27.15,8.65,27.14,10.03ZM25.62,6.62c-.6.04-1.19.09-1.79.14-1.24.09-1.72.61-1.69,1.29s.61,1.21,1.6,1.18a2.41,2.41,0,0,0,1.89-1.07C25.63,7.64,25.62,7.13,25.62,6.62Z"/>
            <path id="Path_1467" data-name="Path 1467" class="cls-4" d="M35.53,10.32c-.5-.03-1-.07-1.5-.09.08-1.32.16-2.65.24-3.97.07-1.2-.1-2.11-1.51-2.18-1.47-.06-2.05,1.05-2.08,2.42-.04,1.19-.07,2.39-.11,3.58-.5-.01-1-.03-1.5-.03.04-2.37.08-4.75.12-7.12.53.01,1.06.02,1.59.04-.02.37-.03.75-.05,1.12h.05a2.678,2.678,0,0,1,2.45-1.17c2.25.11,2.74,1.5,2.61,3.2C35.74,7.52,35.64,8.92,35.53,10.32ZM35.35.41A1.552,1.552,0,0,1,33.72,1.7a2.516,2.516,0,0,1-1.2-.39A2.09,2.09,0,0,0,31.56.9a.758.758,0,0,0-.76.62c-.26-.06-.52-.11-.79-.17A1.537,1.537,0,0,1,31.6,0a2.4,2.4,0,0,1,1.19.39,2.491,2.491,0,0,0,.98.41.781.781,0,0,0,.78-.59C34.82.27,35.08.34,35.35.41Z"/>
            <path id="Path_1468" data-name="Path 1468" class="cls-4" d="M40.96,10.99a3.776,3.776,0,0,1-3.61-4.08c.18-2.2,2.13-3.57,4.51-3.3,2.36.27,3.96,2.04,3.61,4.22A3.9,3.9,0,0,1,40.96,10.99Zm.76-6.22A2.4,2.4,0,0,0,38.92,7a2.4,2.4,0,0,0,2.2,2.76,2.452,2.452,0,0,0,2.79-2.2A2.369,2.369,0,0,0,41.72,4.77Z"/>
            <path id="Path_1469" data-name="Path 1469" class="cls-4" d="M50.8,11.86a3.483,3.483,0,0,1-2.19.24,3.755,3.755,0,0,1-2.68-1.74l.87-.72a3.281,3.281,0,0,0,2.03,1.38c.69.12,1.48.03,1.64-.74s-1-1.22-1.48-1.48a6.007,6.007,0,0,1-.98-.55,1.864,1.864,0,0,1-.93-1.88c.21-1.3,1.59-1.82,2.99-1.57a3.577,3.577,0,0,1,2.5,1.42c-.28.25-.56.49-.84.74a2.976,2.976,0,0,0-1.82-1.12c-.76-.13-1.31.08-1.41.66s.6.95,1.32,1.31c.4.21.67.35.97.53a3,3,0,0,1,.78.67,1.642,1.642,0,0,1,.33,1.41A1.976,1.976,0,0,1,50.8,11.86Z"/>
          </g>
        </g>
        <g id="anos10" transform="translate(-19338.701 -10235.451) rotate(21)">
          <g id="Group_2969" data-name="Group 2969">
            <path id="Path_1070" data-name="Path 1070" class="cls-6" d="M4.6,10.2c-.2,0-.5.1-.7.1C3.3,7.6,2.7,4.8,2.2,2.1c-.7.1-1.4.3-2.1.4,0-.2-.1-.4-.1-.6,1-.2,1.9-.4,2.9-.6C3.4,4.3,4,7.3,4.6,10.2Z"/>
            <path id="Path_1071" data-name="Path 1071" class="cls-6" d="M10.6,9.5c-2.4.2-3.8-1.9-4.2-4.1C6,3.1,6.8.6,9.4.3s3.9,1.9,4.1,4.2S12.9,9.2,10.6,9.5ZM9.5.9c-1.9.2-2.6,2-2.3,4.3C7.6,7.5,8.8,9,10.5,8.8s2.4-1.9,2.2-4.2C12.5,2.2,11.3.7,9.5.9Z"/>
            <path id="Path_1072" data-name="Path 1072" class="cls-6" d="M22.4,8.6h-.7V7.8a2.561,2.561,0,0,1-2.1,1,2.028,2.028,0,0,1-2.2-1.7c-.1-1,.7-1.8,2.5-1.9.6,0,1.2-.1,1.8-.1V4.8c0-1.1-.8-1.6-1.9-1.6a3.344,3.344,0,0,0-1.9.6c-.1-.2-.2-.3-.3-.5a3.8,3.8,0,0,1,2.2-.7,3.155,3.155,0,0,1,2,.6c.4.3.6.8.6,1.8Zm-.7-3c-.6,0-1.2.1-1.8.1-1.4.1-1.8.7-1.7,1.3,0,.7.6,1.2,1.6,1.2a2.61,2.61,0,0,0,2-1.1A7.569,7.569,0,0,1,21.7,5.6Z"/>
            <path id="Path_1073" data-name="Path 1073" class="cls-6" d="M29.3,8.8h-.7c.1-1.2.2-2.4.2-3.6.1-1-.1-2-1.5-2.1s-2.2,1.1-2.2,2.5c0,1-.1,2-.1,3h-.7c0-2,.1-4,.1-6h.8V3.7a2.143,2.143,0,0,1,2.2-1.1c1.9.1,2.3,1.2,2.2,2.7C29.5,6.4,29.4,7.6,29.3,8.8ZM29.2.3a1.242,1.242,0,0,1-1.2,1c-.5,0-.8-.3-1-.3a2.563,2.563,0,0,0-.9-.4.562.562,0,0,0-.6.5c-.2,0-.3-.1-.5-.1a1.268,1.268,0,0,1,1.2-1c.5,0,.8.3,1,.3a1.511,1.511,0,0,0,.9.4.787.787,0,0,0,.7-.5A1.034,1.034,0,0,0,29.2.3Z"/>
            <path id="Path_1074" data-name="Path 1074" class="cls-6" d="M34,9.4A3.225,3.225,0,0,1,31,6a3.177,3.177,0,0,1,3.7-2.8,3.2,3.2,0,0,1,3,3.6A3.272,3.272,0,0,1,34,9.4Zm.7-5.7A2.506,2.506,0,0,0,31.8,6a2.568,2.568,0,0,0,5.1.6A2.449,2.449,0,0,0,34.7,3.7Z"/>
            <path id="Path_1075" data-name="Path 1075" class="cls-6" d="M40.4,10.3a2.726,2.726,0,0,1-2.1-1.5l.6-.3a2.2,2.2,0,0,0,1.7,1.2c.8.1,1.6-.1,1.7-.8.2-.8-.9-1.2-1.5-1.5-.5-.3-1.7-.9-1.5-1.9.2-1.1,1.3-1.4,2.3-1.2a2.657,2.657,0,0,1,1.9,1.2,2.186,2.186,0,0,0-.5.3,2.263,2.263,0,0,0-1.5-1c-.7-.1-1.3.1-1.4.7s.6,1,1.3,1.4c.8.4,1.9,1,1.7,2.1A2.306,2.306,0,0,1,40.4,10.3Z"/>
          </g>
        </g>
        <g id="anual_active" class="" transform="translate(-19511.908 -10200.057) rotate(-20)">
          <g id="Group_3271" data-name="Group 3271">
            <path id="Path_1429" data-name="Path 1429" class="cls-4" d="M85.28,11.79c-.57.05-1.13.1-1.7.16-.48-.86-.96-1.71-1.46-2.56-1.6.18-3.21.41-4.81.67q-.33,1.425-.63,2.85c-.54.09-1.07.19-1.61.3A107.322,107.322,0,0,1,77.89,2.19l1.5-.21Q82.555,6.81,85.28,11.79ZM81.53,8.24q-1.29-2.19-2.67-4.35c-.48,1.63-.92,3.27-1.32,4.9C78.87,8.58,80.2,8.39,81.53,8.24Z"/>
            <path id="Path_1430" data-name="Path 1430" class="cls-4" d="M92.84,11.45c-.5,0-1.01.01-1.51.02-.03-1.32-.06-2.65-.09-3.97-.03-1.2-.28-2.1-1.71-2.05-1.5.06-1.99,1.22-1.9,2.58.07,1.19.15,2.39.23,3.58-.5.03-1.01.06-1.51.1q-.285-3.555-.56-7.11c.54-.04,1.09-.08,1.63-.11.02.37.03.75.05,1.12h.05a2.723,2.723,0,0,1,2.4-1.37c2.31-.07,2.91,1.29,2.91,2.99C92.83,8.64,92.83,10.05,92.84,11.45Z"/>
            <path id="Path_1431" data-name="Path 1431" class="cls-4" d="M101.22,11.78c-.49-.04-.98-.08-1.46-.11l.06-1.02a2.745,2.745,0,0,1-2.4,1.05,2.567,2.567,0,0,1-2.06-.89,3.473,3.473,0,0,1-.52-2.22c.02-1.42.05-2.85.07-4.27.54.01,1.08.02,1.62.04-.05,1.4-.09,2.81-.14,4.21-.03.98.16,1.89,1.51,1.95,1.33.07,1.96-.97,2.05-2.16.09-1.27.18-2.54.27-3.82l1.63.12Q101.55,8.23,101.22,11.78Z"/>
            <path id="Path_1432" data-name="Path 1432" class="cls-4" d="M109.1,12.78c-.49-.08-.97-.16-1.46-.23.05-.3.09-.59.13-.89a3.346,3.346,0,0,1-2.55.72,2.381,2.381,0,0,1-2.34-2.48c.14-1.39,1.47-1.97,3.3-1.81.7.07,1.4.14,2.11.22.02-.09.03-.19.05-.28.18-1.07-.57-1.73-1.73-1.88a5.239,5.239,0,0,0-2.48.32c-.13-.34-.25-.67-.38-1.01a6.447,6.447,0,0,1,3.11-.36,3.669,3.669,0,0,1,2.54,1.19,2.679,2.679,0,0,1,.45,2.42C109.61,10.06,109.36,11.42,109.1,12.78Zm-.93-3.62q-.915-.09-1.83-.15c-1.27-.11-1.83.33-1.92,1s.41,1.28,1.4,1.41a2.532,2.532,0,0,0,2.09-.75C108,10.17,108.09,9.66,108.17,9.16Z"/>
            <path id="Path_1433" data-name="Path 1433" class="cls-4" d="M112.6,13.43l-1.49-.3q1.08-5.07,2.06-10.16c.56.11,1.11.21,1.67.33Q113.775,8.37,112.6,13.43Z"/>
          </g>
        </g>
        <g id="anual" transform="matrix(0.94, -0.342, 0.342, 0.94, -19433.338, -10215.072)">
          <g id="Group_2967" data-name="Group 2967" class="cls-7">
            <g id="Group_2962" data-name="Group 2962" transform="translate(5.755 -4.452)">
              <path id="Path_1064" data-name="Path 1064" class="cls-6" d="M0,0Q-1.305-2.16-2.721-4.288-3.5-1.862-4.129.569C-2.753.346-1.376.15,0,0M2.724,3.1c-.287.022-.575.051-.862.075Q1.139,1.884.378.612q-2.34.252-4.676.645c-.245.951-.471,1.906-.68,2.857l-.777.147a84.2,84.2,0,0,1,2.7-9.579c.155-.024.308-.044.462-.064C-.679-2.61,1.1.214,2.724,3.1"/>
            </g>
            <g id="Group_2963" data-name="Group 2963" transform="translate(14.582 -1.617)">
              <path id="Path_1065" data-name="Path 1065" class="cls-6" d="M0,0C-.242,0-.484,0-.727.006Q-.751-1.78-.776-3.568C-.788-4.54-.989-5.55-2.467-5.508S-4.586-4.279-4.49-2.852c.063,1,.127,1.987.192,2.985-.236.013-.474.031-.712.045Q-5.24-2.831-5.45-5.84c.259-.017.513-.039.772-.049.023.371.045.744.068,1.117A2.366,2.366,0,0,1-2.457-6.095C-.477-6.146-.016-5.027-.014-3.6Q-.009-1.8,0,0"/>
            </g>
            <g id="Group_2964" data-name="Group 2964" transform="translate(21.448 -1.332)">
              <path id="Path_1066" data-name="Path 1066" class="cls-6" d="M0,0C-.236-.02-.474-.041-.711-.058c.028-.321.056-.647.082-.971A2.372,2.372,0,0,1-2.77-.058,2.045,2.045,0,0,1-4.455-.8a3.02,3.02,0,0,1-.439-1.91Q-4.85-4.5-4.812-6.3l.77.021q-.057,1.842-.119,3.69c-.03.914.12,1.883,1.52,1.95S-.577-1.678-.478-2.844q.133-1.611.26-3.227c.257.02.514.04.771.063Q.286-3.005,0,0"/>
            </g>
            <g id="Group_2965" data-name="Group 2965" transform="translate(27.679 -3.64)">
              <path id="Path_1067" data-name="Path 1067" class="cls-6" d="M0,0C-.634-.064-1.266-.128-1.9-.178-3.292-.3-3.794.2-3.874.846s.372,1.283,1.4,1.42A2.639,2.639,0,0,0-.26,1.474C-.172.98-.086.492,0,0M.187,3.133l-.722-.12c.05-.279.1-.554.15-.833A3.047,3.047,0,0,1-2.7,2.827,1.961,1.961,0,0,1-4.6.766C-4.488-.262-3.552-.9-1.744-.721c.611.06,1.223.132,1.833.207.018-.108.037-.215.056-.32C.335-1.922-.415-2.6-1.493-2.748a3.94,3.94,0,0,0-2.079.264c-.078-.174-.157-.348-.237-.524a4.442,4.442,0,0,1,2.37-.325,2.8,2.8,0,0,1,1.962.979A2.216,2.216,0,0,1,.849-.389Q.525,1.37.187,3.133"/>
            </g>
            <g id="Group_2966" data-name="Group 2966" transform="translate(30.552 0.001)">
              <path id="Path_1068" data-name="Path 1068" class="cls-6" d="M0,0C-.235-.049-.473-.1-.708-.144q.978-4.393,1.855-8.8c.266.052.533.105.8.16Q1.028-4.385,0,0"/>
            </g>
          </g>
        </g>
        <g id="bimestral_active" transform="translate(-19517.873 -10135.178) rotate(-61)">
          <g id="Group_3269" data-name="Group 3269">
            <path id="Path_1420" data-name="Path 1420" class="cls-4" d="M8.24,10.13a4.425,4.425,0,0,1-2.58,1.13c-1.16.21-2.31.43-3.47.67C1.44,8.56.7,5.18,0,1.8c1.03-.21,2.07-.41,3.1-.6a5.43,5.43,0,0,1,2.81,0A2.269,2.269,0,0,1,7.48,3.08,2.392,2.392,0,0,1,6.15,5.59a.037.037,0,0,0,.01.03c1.55.03,2.65.74,2.87,2.09A2.677,2.677,0,0,1,8.24,10.13ZM4.93,2.33a3.234,3.234,0,0,0-1.62,0c-.49.09-.98.19-1.47.28.21,1.07.43,2.15.65,3.22.43-.08.87-.16,1.31-.25a3.006,3.006,0,0,0,1.61-.61A1.534,1.534,0,0,0,5.92,3.5,1.368,1.368,0,0,0,4.93,2.33Zm1.46,4.3A3.6,3.6,0,0,0,4.38,6.6c-.56.1-1.11.21-1.67.32.24,1.18.49,2.36.74,3.55.54-.11,1.08-.21,1.63-.31A3.531,3.531,0,0,0,6.9,9.47,1.565,1.565,0,0,0,7.43,7.9,1.539,1.539,0,0,0,6.39,6.63Z"/>
            <path id="Path_1421" data-name="Path 1421" class="cls-4" d="M10.72,1.76a.947.947,0,0,1-1.16-.73A.944.944,0,0,1,10.48.01a.94.94,0,0,1,1.15.74A.942.942,0,0,1,10.72,1.76Zm1.96,8.4c-.5.07-.99.13-1.49.2q-.54-3.525-1.05-7.05c.52-.07,1.04-.15,1.57-.21C12.02,5.46,12.35,7.81,12.68,10.16Z"/>
            <path id="Path_1422" data-name="Path 1422" class="cls-4" d="M25.46,9.05c-.49.02-.98.04-1.47.07-.08-1.38-.16-2.77-.23-4.15-.04-.82-.27-1.91-1.51-1.84s-1.78,1.22-1.68,2.49c.1,1.23.19,2.46.29,3.69l-1.49.12c-.12-1.37-.24-2.75-.37-4.13-.09-1.04-.44-1.89-1.56-1.79-1.23.12-1.73,1.28-1.59,2.54.14,1.23.28,2.46.42,3.68-.5.05-.99.11-1.49.17-.3-2.36-.58-4.72-.87-7.08.52-.06,1.04-.12,1.56-.17.04.37.07.75.11,1.12a.09.09,0,0,0,.05-.01,2.536,2.536,0,0,1,2.1-1.47A2.223,2.223,0,0,1,20.14,3.5,2.714,2.714,0,0,1,22.5,1.93c2.08-.12,2.69,1.26,2.76,2.8C25.32,6.17,25.39,7.61,25.46,9.05Z"/>
            <path id="Path_1423" data-name="Path 1423" class="cls-4" d="M34.19,5.71c-1.94-.03-3.87-.03-5.81.02a2.28,2.28,0,0,0,2.44,2.23,4.359,4.359,0,0,0,2.46-.82c.21.28.41.55.62.83a4.545,4.545,0,0,1-3.26,1.11,3.591,3.591,0,0,1-3.82-3.66,3.617,3.617,0,0,1,3.81-3.77,3.323,3.323,0,0,1,3.61,3.42A5.633,5.633,0,0,1,34.19,5.71ZM32.8,4.73a2.118,2.118,0,0,0-2.21-2.04,2.146,2.146,0,0,0-2.22,2.07C29.84,4.73,31.32,4.72,32.8,4.73Z"/>
            <path id="Path_1424" data-name="Path 1424" class="cls-4" d="M39.88,8.68a3.315,3.315,0,0,1-2.08.53,3.659,3.659,0,0,1-2.84-1.37c.25-.27.49-.55.74-.82a3.2,3.2,0,0,0,2.16,1.1c.69.03,1.43-.17,1.48-.95s-1.13-1.08-1.63-1.26a7.147,7.147,0,0,1-1.02-.41,1.87,1.87,0,0,1-1.15-1.74c.03-1.32,1.29-2.01,2.66-1.95a3.508,3.508,0,0,1,2.59,1.06c-.23.28-.47.56-.7.85a2.862,2.862,0,0,0-1.9-.86c-.75-.03-1.24.25-1.26.84s.71.87,1.45,1.12c.41.15.69.26,1.01.39a2.793,2.793,0,0,1,.85.56,1.709,1.709,0,0,1,.52,1.35A2.083,2.083,0,0,1,39.88,8.68Z"/>
            <path id="Path_1425" data-name="Path 1425" class="cls-4" d="M45.66,9.51a4.142,4.142,0,0,1-1.37.12,1.769,1.769,0,0,1-1.5-.86,3.532,3.532,0,0,1-.21-2.15c.08-1.08.17-2.16.25-3.25-.38-.03-.76-.05-1.13-.08.03-.38.05-.77.08-1.15.38.03.76.05,1.14.08.05-.71.11-1.42.16-2.12l1.59.12c-.06.71-.12,1.41-.18,2.12.62.05,1.24.11,1.86.17-.04.38-.08.77-.11,1.15-.61-.06-1.23-.11-1.84-.17-.09,1.07-.18,2.14-.28,3.21a2.821,2.821,0,0,0,.07,1.32.786.786,0,0,0,.73.43,1.914,1.914,0,0,0,.78-.09C45.68,8.73,45.67,9.12,45.66,9.51Z"/>
            <path id="Path_1426" data-name="Path 1426" class="cls-4" d="M51.72,4.43c-.02,0-.04-.01-.07-.01a2.277,2.277,0,0,0-.82-.26,1.63,1.63,0,0,0-1.33.44,2.954,2.954,0,0,0-.68,1.73c-.14,1.18-.28,2.35-.43,3.53-.5-.06-.99-.11-1.49-.16q.39-3.54.78-7.09c.52.05,1.04.11,1.56.17-.05.36-.1.72-.14,1.09a.09.09,0,0,1,.05.01,2.014,2.014,0,0,1,2.05-.99,2.384,2.384,0,0,1,.8.23C51.9,3.56,51.81,3.99,51.72,4.43Z"/>
            <path id="Path_1427" data-name="Path 1427" class="cls-4" d="M57.8,11.26c-.48-.09-.96-.17-1.44-.25.05-.3.1-.59.15-.89a3.228,3.228,0,0,1-2.53.67,2.34,2.34,0,0,1-2.22-2.55c.2-1.38,1.51-1.92,3.28-1.72.68.08,1.36.17,2.04.26.02-.09.03-.19.05-.28.19-1.06-.51-1.73-1.63-1.91a4.935,4.935,0,0,0-2.41.26l-.33-1.02a6.144,6.144,0,0,1,3.01-.28,3.521,3.521,0,0,1,2.42,1.22,2.79,2.79,0,0,1,.4,2.42C58.33,8.55,58.07,9.91,57.8,11.26Zm-.85-3.62c-.59-.07-1.19-.13-1.78-.19-1.23-.13-1.8.29-1.9.95s.36,1.3,1.34,1.45a2.462,2.462,0,0,0,2.07-.71Z"/>
            <path id="Path_1428" data-name="Path 1428" class="cls-4" d="M61.26,11.93c-.49-.1-.98-.2-1.47-.29q1.08-5.07,2.08-10.15c.53.1,1.05.21,1.58.32Q62.385,6.865,61.26,11.93Z"/>
          </g>
        </g>
        <g id="bimestral" class=""  transform="matrix(0.485, -0.875, 0.875, 0.485, -19514.137, -10139.952)">
          <g id="Group_3281" data-name="Group 3281">
            <path id="Path_1455" data-name="Path 1455" class="cls-8" d="M6.59,8.54a3.563,3.563,0,0,1-2.2.98Q3.145,9.745,1.9,10C1.25,7.08.61,4.15,0,1.22.74,1.07,1.47.92,2.21.79a4.082,4.082,0,0,1,2.4.04A1.935,1.935,0,0,1,5.84,2.45,2.089,2.089,0,0,1,4.63,4.64c1.4-.03,2.43.6,2.63,1.82A2.3,2.3,0,0,1,6.59,8.54ZM4.03,1.38A3.427,3.427,0,0,0,2.4,1.4c-.5.09-1,.19-1.49.29.22,1.1.45,2.2.68,3.3.43-.09.87-.17,1.31-.25a3.209,3.209,0,0,0,1.62-.63,1.545,1.545,0,0,0,.54-1.52A1.4,1.4,0,0,0,4.03,1.38ZM5.39,5.31A3.9,3.9,0,0,0,3.3,5.3l-1.58.3c.25,1.21.51,2.42.77,3.63.51-.1,1.02-.2,1.53-.29a3.833,3.833,0,0,0,1.89-.71,1.657,1.657,0,0,0,.56-1.61A1.578,1.578,0,0,0,5.39,5.31Z"/>
            <path id="Path_1456" data-name="Path 1456" class="cls-8" d="M8.65,1.11A.579.579,0,0,1,7.96.65.576.576,0,0,1,8.5.01a.59.59,0,0,1,.7.47A.582.582,0,0,1,8.65,1.11Zm1.43,7.5c-.23.03-.47.06-.7.1Q8.93,5.725,8.5,2.74c.25-.04.5-.07.74-.11C9.51,4.63,9.8,6.62,10.08,8.61Z"/>
            <path id="Path_1457" data-name="Path 1457" class="cls-8" d="M20.67,7.67l-.7.03c-.06-1.22-.13-2.44-.19-3.66-.04-.75-.23-1.88-1.51-1.81C17,2.32,16.41,3.5,16.52,4.77c.08,1.05.17,2.09.25,3.14l-.7.06c-.11-1.22-.21-2.44-.32-3.65-.09-1.01-.44-1.86-1.57-1.75-1.28.12-1.83,1.32-1.68,2.59.12,1.04.24,2.08.36,3.13-.23.03-.47.05-.7.08-.25-2-.49-3.99-.73-5.99.25-.03.49-.06.74-.08.04.37.08.74.13,1.11a2.17,2.17,0,0,1,1.85-1.42,1.862,1.862,0,0,1,2.06,1.09,2.316,2.316,0,0,1,1.99-1.4c1.82-.11,2.26,1.15,2.31,2.35S20.62,6.45,20.67,7.67Z"/>
            <path id="Path_1458" data-name="Path 1458" class="cls-8" d="M28.03,4.73c-1.73-.03-3.47-.03-5.2.01a2.293,2.293,0,0,0,2.38,2.35,3.387,3.387,0,0,0,2.22-.77c.11.16.22.32.33.49a3.565,3.565,0,0,1-2.61.89,2.97,2.97,0,0,1-3.08-3.09,3,3,0,0,1,3.1-3.17,2.746,2.746,0,0,1,2.92,2.84C28.07,4.47,28.03,4.73,28.03,4.73Zm-.68-.6a2.146,2.146,0,0,0-2.23-2.12,2.195,2.195,0,0,0-2.28,2.14C24.34,4.12,25.84,4.11,27.35,4.13Z"/>
            <path id="Path_1459" data-name="Path 1459" class="cls-8" d="M31.09,7.82a2.625,2.625,0,0,1-2.24-1.25c.17-.13.34-.25.51-.37a2.241,2.241,0,0,0,1.78,1.02c.78.04,1.49-.28,1.54-1.06S31.6,5.04,31.06,4.84s-1.73-.64-1.7-1.73a1.754,1.754,0,0,1,2.05-1.53,2.552,2.552,0,0,1,2.02.96l-.48.39a2.03,2.03,0,0,0-1.6-.77c-.74-.03-1.27.29-1.29.91s.66.92,1.44,1.22,1.97.76,1.89,1.9C33.32,7.3,32.24,7.87,31.09,7.82Z"/>
            <path id="Path_1460" data-name="Path 1460" class="cls-8" d="M37.3,8.08a2.047,2.047,0,0,1-.96.1,1.252,1.252,0,0,1-1.13-.75,3.809,3.809,0,0,1-.08-1.83c.08-1.02.17-2.03.25-3.05-.33-.03-.66-.05-.99-.07.01-.2.03-.41.04-.61.33.02.66.05.99.07L35.57.02l.76.06c-.05.64-.11,1.28-.17,1.92l1.66.15c-.02.2-.04.4-.06.61-.56-.05-1.11-.11-1.66-.15l-.3,3.45c-.06.66-.05,1.46.79,1.53a1.4,1.4,0,0,0,.69-.1A5.815,5.815,0,0,1,37.3,8.08Z"/>
            <path id="Path_1461" data-name="Path 1461" class="cls-8" d="M42.16,3.29a2.225,2.225,0,0,0-.69-.2,1.465,1.465,0,0,0-1.2.4,2.684,2.684,0,0,0-.67,1.62c-.13,1.08-.26,2.15-.4,3.23-.23-.03-.47-.05-.7-.08q.36-3,.69-6c.25.03.49.05.74.08-.04.37-.09.75-.13,1.12a1.7,1.7,0,0,1,1.82-1.02,2.857,2.857,0,0,1,.7.18C42.26,2.86,42.21,3.08,42.16,3.29Z"/>
            <path id="Path_1462" data-name="Path 1462" class="cls-8" d="M46.84,9.49c-.24-.04-.47-.09-.71-.13.05-.28.11-.55.16-.83A2.909,2.909,0,0,1,44,9.14a1.929,1.929,0,0,1-1.81-2.11C42.33,6,43.27,5.4,45.02,5.61c.59.07,1.18.15,1.77.23.02-.11.04-.21.06-.32a1.6,1.6,0,0,0-1.54-1.93,3.77,3.77,0,0,0-2.01.22c-.07-.18-.14-.35-.21-.53a4.186,4.186,0,0,1,2.29-.27,2.641,2.641,0,0,1,1.86,1,2.287,2.287,0,0,1,.28,1.97C47.3,7.15,47.07,8.32,46.84,9.49ZM46.7,6.35c-.61-.07-1.23-.14-1.84-.2-1.36-.15-1.87.34-1.97.98s.32,1.29,1.33,1.45a2.546,2.546,0,0,0,2.19-.76C46.51,7.33,46.6,6.84,46.7,6.35Z"/>
            <path id="Path_1463" data-name="Path 1463" class="cls-8" d="M49.48,10c-.23-.05-.47-.1-.7-.14.64-2.93,1.25-5.86,1.85-8.79.25.05.5.1.76.15Q50.475,5.615,49.48,10Z"/>
          </g>
        </g>
        <path id="cursor_anos25" class="cursor cls-6 " d="M16165.63,22210l2.591,13.727h4.533l2.429-13.727Z" transform="translate(-32141.426 14127.434) rotate(-116)"/>
        <path id="cursor_anos10" class="cursor cls-6 " d="M16160.63,22197l2.591,13.727h4.533l2.429-13.727Z" transform="matrix(-0.921, -0.391, 0.391, -0.921, -13122.553, 16565.527)"/>
        <path id="cursor_anual" class="cursor cls-6 " d="M16165.63,22210l2.591,13.727h4.533l2.429-13.727Z" transform="translate(3383.766 5140.594) rotate(160)"/>
        <path id="cursor_bimestral" class="cursor cls-6" d="M16165.63,22210l2.591,13.727h4.533l2.429-13.727Z" transform="translate(7892.883 -12568.033) rotate(121)"/>
      </g>
      <g class="cls-9" transform="matrix(1, 0, 0, 1, -13, 401)">
        <ellipse id="front-circle-2" data-name="front-circle" class="cls-2" cx="116" cy="117.5" rx="116" ry="117.5" transform="translate(55.9 52.9)"/>
      </g>
    </g>
  </g>
</svg>
