<svg xmlns="http://www.w3.org/2000/svg" xmlns:xlink="http://www.w3.org/1999/xlink" viewBox="0 0 288.228 166.428">
  <defs>
    <style>
      .cls-1, .cls-7, .cls-8 {
        fill: #fff;
      }

      .cls-2 {
        fill: #ffe660;
      }

      .cls-3 {
        fill: #5c5d5e;
      }

      .cls-4 {
        fill: #fde35d;
      }

      .cls-5 {
        clip-path: url(#clip-path);
      }

      .cls-6 {
        clip-path: url(#clip-path-2);
      }

      .cls-7 {
        font-size: 40px;
        font-family: SegoeUI, Segoe UI;
      }

      .cls-8 {
        font-size: 13px;
        font-family: SegoeUI-Light, Segoe UI;
        font-weight: 300;
        letter-spacing: 0.05em;
      }

      .cls-9 {
        filter: url(#_4_862);
      }

      .cls-10 {
        filter: url(#Subtraction_82);
      }
    </style>
    <filter id="Subtraction_82" x="5.986" y="7.427" width="277.999" height="159" filterUnits="userSpaceOnUse">
      <feOffset input="SourceAlpha"/>
      <feGaussianBlur stdDeviation="3" result="blur"/>
      <feFlood flood-color="#ffe660"/>
      <feComposite operator="in" in2="blur"/>
      <feComposite in="SourceGraphic"/>
    </filter>
    <clipPath id="clip-path">
      <path id="Path_1069" data-name="Path 1069" class="cls-1" d="M0-9.833H32.5V0H0Z"/>
    </clipPath>
    <clipPath id="clip-path-2">
      <path id="Path_1082" data-name="Path 1082" class="cls-1" d="M0-10.756H45.063V0H0Z"/>
    </clipPath>
    <filter id="_4_862" x="76.986" y="58.427" width="136" height="71" filterUnits="userSpaceOnUse">
      <feOffset input="SourceAlpha"/>
      <feGaussianBlur stdDeviation="3" result="blur-2"/>
      <feFlood flood-color="#ffe660"/>
      <feComposite operator="in" in2="blur-2"/>
      <feComposite in="SourceGraphic"/>
    </filter>
  </defs>
  <g id="Group_3527" data-name="Group 3527" transform="translate(-43.014 -404.573)">
    <g id="Group_3526" data-name="Group 3526">
      <g class="cls-10" transform="matrix(1, 0, 0, 1, 43.01, 404.57)">
        <path id="Subtraction_82-2" data-name="Subtraction 82" class="cls-2" d="M3651.55-5730h-14.09c-.3-3.639-.459-7.339-.459-11a130.961,130.961,0,0,1,2.641-26.2,129.331,129.331,0,0,1,7.575-24.4,130.008,130.008,0,0,1,11.986-22.083,130.9,130.9,0,0,1,15.874-19.239,130.959,130.959,0,0,1,19.24-15.875,130.078,130.078,0,0,1,22.082-11.986,129.36,129.36,0,0,1,24.4-7.575A130.976,130.976,0,0,1,3767-5871a130.976,130.976,0,0,1,26.2,2.641,129.36,129.36,0,0,1,24.4,7.575,130.052,130.052,0,0,1,22.082,11.986,130.968,130.968,0,0,1,19.24,15.875,130.871,130.871,0,0,1,15.874,19.239,130.015,130.015,0,0,1,11.986,22.083,129.347,129.347,0,0,1,7.575,24.4A130.961,130.961,0,0,1,3897-5741c0,3.663-.154,7.363-.459,11h-14.09c.364-3.788.55-7.656.55-11.5a119.857,119.857,0,0,0-2.357-23.681,118,118,0,0,0-6.759-22.056,117.994,117.994,0,0,0-10.7-19.959,118,118,0,0,0-14.165-17.39,117.165,117.165,0,0,0-17.167-14.348,115.534,115.534,0,0,0-19.7-10.833,114.3,114.3,0,0,0-21.774-6.847A115.423,115.423,0,0,0,3767-5859a115.43,115.43,0,0,0-23.378,2.387,114.3,114.3,0,0,0-21.774,6.847,115.531,115.531,0,0,0-19.7,10.833,117.189,117.189,0,0,0-17.168,14.348,118.051,118.051,0,0,0-14.165,17.39,117.994,117.994,0,0,0-10.695,19.959,117.99,117.99,0,0,0-6.759,22.056A119.857,119.857,0,0,0,3651-5741.5c0,3.85.184,7.719.548,11.5Z" transform="translate(-3622.01 5887.43)"/>
      </g>
      <path id="Path_1511" data-name="Path 1511" class="cls-3" d="M16165.63,22210l2.591,13.727h4.533l2.429-13.727Z" transform="translate(27452.883 -1928.033) rotate(121)"/>
      <g id="Group_3460" data-name="Group 3460" transform="translate(0 1)">
        <g id="Group_3284" data-name="Group 3284" transform="translate(42.127 503.822) rotate(-61)">
          <g id="Group_3269" data-name="Group 3269">
            <path id="Path_1420" data-name="Path 1420" class="cls-4" d="M8.24,10.13a4.425,4.425,0,0,1-2.58,1.13c-1.16.21-2.31.43-3.47.67C1.44,8.56.7,5.18,0,1.8c1.03-.21,2.07-.41,3.1-.6a5.43,5.43,0,0,1,2.81,0A2.269,2.269,0,0,1,7.48,3.08,2.392,2.392,0,0,1,6.15,5.59a.037.037,0,0,0,.01.03c1.55.03,2.65.74,2.87,2.09A2.677,2.677,0,0,1,8.24,10.13ZM4.93,2.33a3.234,3.234,0,0,0-1.62,0c-.49.09-.98.19-1.47.28.21,1.07.43,2.15.65,3.22.43-.08.87-.16,1.31-.25a3.006,3.006,0,0,0,1.61-.61A1.534,1.534,0,0,0,5.92,3.5,1.368,1.368,0,0,0,4.93,2.33Zm1.46,4.3A3.6,3.6,0,0,0,4.38,6.6c-.56.1-1.11.21-1.67.32.24,1.18.49,2.36.74,3.55.54-.11,1.08-.21,1.63-.31A3.531,3.531,0,0,0,6.9,9.47,1.565,1.565,0,0,0,7.43,7.9,1.539,1.539,0,0,0,6.39,6.63Z"/>
            <path id="Path_1421" data-name="Path 1421" class="cls-4" d="M10.72,1.76a.947.947,0,0,1-1.16-.73A.944.944,0,0,1,10.48.01a.94.94,0,0,1,1.15.74A.942.942,0,0,1,10.72,1.76Zm1.96,8.4c-.5.07-.99.13-1.49.2q-.54-3.525-1.05-7.05c.52-.07,1.04-.15,1.57-.21C12.02,5.46,12.35,7.81,12.68,10.16Z"/>
            <path id="Path_1422" data-name="Path 1422" class="cls-4" d="M25.46,9.05c-.49.02-.98.04-1.47.07-.08-1.38-.16-2.77-.23-4.15-.04-.82-.27-1.91-1.51-1.84s-1.78,1.22-1.68,2.49c.1,1.23.19,2.46.29,3.69l-1.49.12c-.12-1.37-.24-2.75-.37-4.13-.09-1.04-.44-1.89-1.56-1.79-1.23.12-1.73,1.28-1.59,2.54.14,1.23.28,2.46.42,3.68-.5.05-.99.11-1.49.17-.3-2.36-.58-4.72-.87-7.08.52-.06,1.04-.12,1.56-.17.04.37.07.75.11,1.12a.09.09,0,0,0,.05-.01,2.536,2.536,0,0,1,2.1-1.47A2.223,2.223,0,0,1,20.14,3.5,2.714,2.714,0,0,1,22.5,1.93c2.08-.12,2.69,1.26,2.76,2.8C25.32,6.17,25.39,7.61,25.46,9.05Z"/>
            <path id="Path_1423" data-name="Path 1423" class="cls-4" d="M34.19,5.71c-1.94-.03-3.87-.03-5.81.02a2.28,2.28,0,0,0,2.44,2.23,4.359,4.359,0,0,0,2.46-.82c.21.28.41.55.62.83a4.545,4.545,0,0,1-3.26,1.11,3.591,3.591,0,0,1-3.82-3.66,3.617,3.617,0,0,1,3.81-3.77,3.323,3.323,0,0,1,3.61,3.42A5.633,5.633,0,0,1,34.19,5.71ZM32.8,4.73a2.118,2.118,0,0,0-2.21-2.04,2.146,2.146,0,0,0-2.22,2.07C29.84,4.73,31.32,4.72,32.8,4.73Z"/>
            <path id="Path_1424" data-name="Path 1424" class="cls-4" d="M39.88,8.68a3.315,3.315,0,0,1-2.08.53,3.659,3.659,0,0,1-2.84-1.37c.25-.27.49-.55.74-.82a3.2,3.2,0,0,0,2.16,1.1c.69.03,1.43-.17,1.48-.95s-1.13-1.08-1.63-1.26a7.147,7.147,0,0,1-1.02-.41,1.87,1.87,0,0,1-1.15-1.74c.03-1.32,1.29-2.01,2.66-1.95a3.508,3.508,0,0,1,2.59,1.06c-.23.28-.47.56-.7.85a2.862,2.862,0,0,0-1.9-.86c-.75-.03-1.24.25-1.26.84s.71.87,1.45,1.12c.41.15.69.26,1.01.39a2.793,2.793,0,0,1,.85.56,1.709,1.709,0,0,1,.52,1.35A2.083,2.083,0,0,1,39.88,8.68Z"/>
            <path id="Path_1425" data-name="Path 1425" class="cls-4" d="M45.66,9.51a4.142,4.142,0,0,1-1.37.12,1.769,1.769,0,0,1-1.5-.86,3.532,3.532,0,0,1-.21-2.15c.08-1.08.17-2.16.25-3.25-.38-.03-.76-.05-1.13-.08.03-.38.05-.77.08-1.15.38.03.76.05,1.14.08.05-.71.11-1.42.16-2.12l1.59.12c-.06.71-.12,1.41-.18,2.12.62.05,1.24.11,1.86.17-.04.38-.08.77-.11,1.15-.61-.06-1.23-.11-1.84-.17-.09,1.07-.18,2.14-.28,3.21a2.821,2.821,0,0,0,.07,1.32.786.786,0,0,0,.73.43,1.914,1.914,0,0,0,.78-.09C45.68,8.73,45.67,9.12,45.66,9.51Z"/>
            <path id="Path_1426" data-name="Path 1426" class="cls-4" d="M51.72,4.43c-.02,0-.04-.01-.07-.01a2.277,2.277,0,0,0-.82-.26,1.63,1.63,0,0,0-1.33.44,2.954,2.954,0,0,0-.68,1.73c-.14,1.18-.28,2.35-.43,3.53-.5-.06-.99-.11-1.49-.16q.39-3.54.78-7.09c.52.05,1.04.11,1.56.17-.05.36-.1.72-.14,1.09a.09.09,0,0,1,.05.01,2.014,2.014,0,0,1,2.05-.99,2.384,2.384,0,0,1,.8.23C51.9,3.56,51.81,3.99,51.72,4.43Z"/>
            <path id="Path_1427" data-name="Path 1427" class="cls-4" d="M57.8,11.26c-.48-.09-.96-.17-1.44-.25.05-.3.1-.59.15-.89a3.228,3.228,0,0,1-2.53.67,2.34,2.34,0,0,1-2.22-2.55c.2-1.38,1.51-1.92,3.28-1.72.68.08,1.36.17,2.04.26.02-.09.03-.19.05-.28.19-1.06-.51-1.73-1.63-1.91a4.935,4.935,0,0,0-2.41.26l-.33-1.02a6.144,6.144,0,0,1,3.01-.28,3.521,3.521,0,0,1,2.42,1.22,2.79,2.79,0,0,1,.4,2.42C58.33,8.55,58.07,9.91,57.8,11.26Zm-.85-3.62c-.59-.07-1.19-.13-1.78-.19-1.23-.13-1.8.29-1.9.95s.36,1.3,1.34,1.45a2.462,2.462,0,0,0,2.07-.71Z"/>
            <path id="Path_1428" data-name="Path 1428" class="cls-4" d="M61.26,11.93c-.49-.1-.98-.2-1.47-.29q1.08-5.07,2.08-10.15c.53.1,1.05.21,1.58.32Q62.385,6.865,61.26,11.93Z"/>
          </g>
        </g>
        <g id="Group_3460-2" data-name="Group 3460">
          <g id="Group_2968" data-name="Group 2968" transform="matrix(0.94, -0.342, 0.342, 0.94, 126.662, 423.928)">
            <g id="Group_2967" data-name="Group 2967" class="cls-5">
              <g id="Group_2962" data-name="Group 2962" transform="translate(5.755 -4.452)">
                <path id="Path_1064" data-name="Path 1064" class="cls-1" d="M0,0Q-1.305-2.16-2.721-4.288-3.5-1.862-4.129.569C-2.753.346-1.376.15,0,0M2.724,3.1c-.287.022-.575.051-.862.075Q1.139,1.884.378.612q-2.34.252-4.676.645c-.245.951-.471,1.906-.68,2.857l-.777.147a84.2,84.2,0,0,1,2.7-9.579c.155-.024.308-.044.462-.064C-.679-2.61,1.1.214,2.724,3.1"/>
              </g>
              <g id="Group_2963" data-name="Group 2963" transform="translate(14.582 -1.617)">
                <path id="Path_1065" data-name="Path 1065" class="cls-1" d="M0,0C-.242,0-.484,0-.727.006Q-.751-1.78-.776-3.568C-.788-4.54-.989-5.55-2.467-5.508S-4.586-4.279-4.49-2.852c.063,1,.127,1.987.192,2.985-.236.013-.474.031-.712.045Q-5.24-2.831-5.45-5.84c.259-.017.513-.039.772-.049.023.371.045.744.068,1.117A2.366,2.366,0,0,1-2.457-6.095C-.477-6.146-.016-5.027-.014-3.6Q-.009-1.8,0,0"/>
              </g>
              <g id="Group_2964" data-name="Group 2964" transform="translate(21.448 -1.332)">
                <path id="Path_1066" data-name="Path 1066" class="cls-1" d="M0,0C-.236-.02-.474-.041-.711-.058c.028-.321.056-.647.082-.971A2.372,2.372,0,0,1-2.77-.058,2.045,2.045,0,0,1-4.455-.8a3.02,3.02,0,0,1-.439-1.91Q-4.85-4.5-4.812-6.3l.77.021q-.057,1.842-.119,3.69c-.03.914.12,1.883,1.52,1.95S-.577-1.678-.478-2.844q.133-1.611.26-3.227c.257.02.514.04.771.063Q.286-3.005,0,0"/>
              </g>
              <g id="Group_2965" data-name="Group 2965" transform="translate(27.679 -3.64)">
                <path id="Path_1067" data-name="Path 1067" class="cls-1" d="M0,0C-.634-.064-1.266-.128-1.9-.178-3.292-.3-3.794.2-3.874.846s.372,1.283,1.4,1.42A2.639,2.639,0,0,0-.26,1.474C-.172.98-.086.492,0,0M.187,3.133l-.722-.12c.05-.279.1-.554.15-.833A3.047,3.047,0,0,1-2.7,2.827,1.961,1.961,0,0,1-4.6.766C-4.488-.262-3.552-.9-1.744-.721c.611.06,1.223.132,1.833.207.018-.108.037-.215.056-.32C.335-1.922-.415-2.6-1.493-2.748a3.94,3.94,0,0,0-2.079.264c-.078-.174-.157-.348-.237-.524a4.442,4.442,0,0,1,2.37-.325,2.8,2.8,0,0,1,1.962.979A2.216,2.216,0,0,1,.849-.389Q.525,1.37.187,3.133"/>
              </g>
              <g id="Group_2966" data-name="Group 2966" transform="translate(30.552 0.001)">
                <path id="Path_1068" data-name="Path 1068" class="cls-1" d="M0,0C-.235-.049-.473-.1-.708-.144q.978-4.393,1.855-8.8c.266.052.533.105.8.16Q1.028-4.385,0,0"/>
              </g>
            </g>
          </g>
          <g id="Group_2970" data-name="Group 2970" transform="translate(221.299 403.549) rotate(21)">
            <g id="Group_2969" data-name="Group 2969">
              <path id="Path_1070" data-name="Path 1070" class="cls-1" d="M4.6,10.2c-.2,0-.5.1-.7.1C3.3,7.6,2.7,4.8,2.2,2.1c-.7.1-1.4.3-2.1.4,0-.2-.1-.4-.1-.6,1-.2,1.9-.4,2.9-.6C3.4,4.3,4,7.3,4.6,10.2Z"/>
              <path id="Path_1071" data-name="Path 1071" class="cls-1" d="M10.6,9.5c-2.4.2-3.8-1.9-4.2-4.1C6,3.1,6.8.6,9.4.3s3.9,1.9,4.1,4.2S12.9,9.2,10.6,9.5ZM9.5.9c-1.9.2-2.6,2-2.3,4.3C7.6,7.5,8.8,9,10.5,8.8s2.4-1.9,2.2-4.2C12.5,2.2,11.3.7,9.5.9Z"/>
              <path id="Path_1072" data-name="Path 1072" class="cls-1" d="M22.4,8.6h-.7V7.8a2.561,2.561,0,0,1-2.1,1,2.028,2.028,0,0,1-2.2-1.7c-.1-1,.7-1.8,2.5-1.9.6,0,1.2-.1,1.8-.1V4.8c0-1.1-.8-1.6-1.9-1.6a3.344,3.344,0,0,0-1.9.6c-.1-.2-.2-.3-.3-.5a3.8,3.8,0,0,1,2.2-.7,3.155,3.155,0,0,1,2,.6c.4.3.6.8.6,1.8Zm-.7-3c-.6,0-1.2.1-1.8.1-1.4.1-1.8.7-1.7,1.3,0,.7.6,1.2,1.6,1.2a2.61,2.61,0,0,0,2-1.1A7.569,7.569,0,0,1,21.7,5.6Z"/>
              <path id="Path_1073" data-name="Path 1073" class="cls-1" d="M29.3,8.8h-.7c.1-1.2.2-2.4.2-3.6.1-1-.1-2-1.5-2.1s-2.2,1.1-2.2,2.5c0,1-.1,2-.1,3h-.7c0-2,.1-4,.1-6h.8V3.7a2.143,2.143,0,0,1,2.2-1.1c1.9.1,2.3,1.2,2.2,2.7C29.5,6.4,29.4,7.6,29.3,8.8ZM29.2.3a1.242,1.242,0,0,1-1.2,1c-.5,0-.8-.3-1-.3a2.563,2.563,0,0,0-.9-.4.562.562,0,0,0-.6.5c-.2,0-.3-.1-.5-.1a1.268,1.268,0,0,1,1.2-1c.5,0,.8.3,1,.3a1.511,1.511,0,0,0,.9.4.787.787,0,0,0,.7-.5A1.034,1.034,0,0,0,29.2.3Z"/>
              <path id="Path_1074" data-name="Path 1074" class="cls-1" d="M34,9.4A3.225,3.225,0,0,1,31,6a3.177,3.177,0,0,1,3.7-2.8,3.2,3.2,0,0,1,3,3.6A3.272,3.272,0,0,1,34,9.4Zm.7-5.7A2.506,2.506,0,0,0,31.8,6a2.568,2.568,0,0,0,5.1.6A2.449,2.449,0,0,0,34.7,3.7Z"/>
              <path id="Path_1075" data-name="Path 1075" class="cls-1" d="M40.4,10.3a2.726,2.726,0,0,1-2.1-1.5l.6-.3a2.2,2.2,0,0,0,1.7,1.2c.8.1,1.6-.1,1.7-.8.2-.8-.9-1.2-1.5-1.5-.5-.3-1.7-.9-1.5-1.9.2-1.1,1.3-1.4,2.3-1.2a2.657,2.657,0,0,1,1.9,1.2,2.186,2.186,0,0,0-.5.3,2.263,2.263,0,0,0-1.5-1c-.7-.1-1.3.1-1.4.7s.6,1,1.3,1.4c.8.4,1.9,1,1.7,2.1A2.306,2.306,0,0,1,40.4,10.3Z"/>
            </g>
          </g>
          <g id="Group_2978" data-name="Group 2978" transform="matrix(0.438, 0.899, -0.899, 0.438, 301.82, 469.24)">
            <g id="Group_2977" data-name="Group 2977" class="cls-6">
              <g id="Group_2971" data-name="Group 2971" transform="translate(7.71 -1.028)">
                <path id="Path_1076" data-name="Path 1076" class="cls-1" d="M0,0C-1.988.283-3.974.633-5.959,1.028l-.25-.481c.9-1.269,1.844-2.528,2.824-3.772C-2.859-3.909-2-5.031-2.178-6.189a2.11,2.11,0,0,0-2.7-1.623,2.692,2.692,0,0,0-2.18,2.019c-.215-.068-.432-.137-.648-.2A3.281,3.281,0,0,1-4.992-8.428c1.857-.324,3.368.516,3.6,2.094S-2.537-3.3-2.941-2.771Q-4.117-1.285-5.215.217-2.661-.272-.1-.644L0,0"/>
              </g>
              <g id="Group_2972" data-name="Group 2972" transform="translate(11.794 -1.38)">
                <path id="Path_1077" data-name="Path 1077" class="cls-1" d="M0,0A3.318,3.318,0,0,1-3.06-1.17c.165-.154.331-.3.5-.457A2.751,2.751,0,0,0,0-.641,2.322,2.322,0,0,0,2.246-3.175,2.312,2.312,0,0,0-.517-5.229a2.7,2.7,0,0,0-1.65.668c-.176-.064-.354-.132-.53-.2.13-1.39.278-2.786.438-4.179q2.291-.27,4.576-.44c.016.207.033.414.048.622Q.384-8.6-1.6-8.383q-.19,1.472-.359,2.947A3.668,3.668,0,0,1-.513-5.858,3,3,0,0,1,3.014-3.236,3.081,3.081,0,0,1,0,0"/>
              </g>
              <g id="Group_2973" data-name="Group 2973" transform="translate(23.274 -5.18)">
                <path id="Path_1078" data-name="Path 1078" class="cls-1" d="M0,0C-.616.035-1.23.071-1.844.114-3.2.2-3.613.767-3.592,1.414s.561,1.216,1.58,1.2A2.5,2.5,0,0,0,0,1.494C0,.992,0,.5,0,0M.71,3.06c-.241,0-.48,0-.719,0,0-.284,0-.565,0-.845a2.852,2.852,0,0,1-2.13.99A1.96,1.96,0,0,1-4.311,1.438C-4.354.405-3.541-.357-1.783-.445-1.187-.476-.593-.5,0-.521,0-.628,0-.739,0-.846A1.617,1.617,0,0,0-1.854-2.485,3.73,3.73,0,0,0-3.8-1.922c-.1-.163-.2-.317-.3-.485a4.236,4.236,0,0,1,2.211-.664A2.628,2.628,0,0,1,.12-2.4,2.318,2.318,0,0,1,.746-.517C.734.677.721,1.866.71,3.06"/>
              </g>
              <g id="Group_2974" data-name="Group 2974" transform="translate(30.784 -10.339)">
                <path id="Path_1079" data-name="Path 1079" class="cls-1" d="M0,0A1.13,1.13,0,0,1-1.191.928,2.154,2.154,0,0,1-2.168.59,2.1,2.1,0,0,0-3.03.227a.617.617,0,0,0-.636.521C-3.824.7-3.984.646-4.142.6a1.121,1.121,0,0,1,1.18-.958,1.986,1.986,0,0,1,.972.331,2.226,2.226,0,0,0,.862.371A.651.651,0,0,0-.462-.16c.154.053.309.106.462.16M.065,8.5l-.719-.051c.089-1.187.172-2.379.257-3.566.071-.968-.046-1.989-1.48-2.069S-4.038,3.857-4.086,5.286Q-4.14,6.78-4.2,8.274c-.235-.006-.471-.014-.706-.022.058-2.008.12-4.018.173-6.029.249.006.5.016.749.023Q-4,2.8-4.019,3.363a2.321,2.321,0,0,1,2.2-1.129C.1,2.344.463,3.488.35,4.912.255,6.107.162,7.307.065,8.5"/>
              </g>
              <g id="Group_2975" data-name="Group 2975" transform="translate(36.238 -6.896)">
                <path id="Path_1080" data-name="Path 1080" class="cls-1" d="M0,0A2.444,2.444,0,0,0-2.857,2.246,2.453,2.453,0,0,0-.635,5.033,2.515,2.515,0,0,0,2.244,2.85,2.413,2.413,0,0,0,0,0M-.713,5.64A3.168,3.168,0,0,1-3.63,2.2,3.169,3.169,0,0,1,.072-.582,3.128,3.128,0,0,1,3.009,2.985,3.253,3.253,0,0,1-.713,5.64"/>
              </g>
              <g id="Group_2976" data-name="Group 2976" transform="translate(41.914 -0.306)">
                <path id="Path_1081" data-name="Path 1081" class="cls-1" d="M0,0A2.639,2.639,0,0,1-2.087-1.541l.574-.3A2.249,2.249,0,0,0,.146-.6c.787.139,1.559-.072,1.723-.843S.935-2.695.409-2.972s-1.67-.86-1.489-1.941a1.816,1.816,0,0,1,2.3-1.247A2.64,2.64,0,0,1,3.149-4.936l-.541.32A2.105,2.105,0,0,0,1.087-5.6c-.747-.132-1.336.108-1.443.728S.19-3.869.94-3.472c.765.4,1.9,1.027,1.652,2.146A2.08,2.08,0,0,1,0,0"/>
              </g>
            </g>
          </g>
        </g>
      </g>
    </g>
    <g class="cls-9" transform="matrix(1, 0, 0, 1, 43.01, 404.57)">
      <text id="_4_862-2" data-name="$4,862" class="cls-7" transform="translate(144.99 110.43)"><tspan x="-58.242" y="0">$4,862</tspan></text>
    </g>
    <text id="GASTO_EN_LUZ" data-name="GASTO EN LUZ" class="cls-8" transform="translate(188 470)"><tspan x="-45.235" y="0">GASTO EN LUZ</tspan></text>
  </g>
</svg>
