<svg xmlns="http://www.w3.org/2000/svg" xmlns:xlink="http://www.w3.org/1999/xlink" viewBox="0 0 192 110.5">
  <defs>
    <style>
      .cls-1, .cls-4, .cls-5 {
        fill: #fff;
      }

      .cls-2, .cls-3 {
        fill: none;
        stroke: #fff;
        stroke-miterlimit: 10;
      }

      .cls-3 {
        stroke-linecap: round;
        stroke-linejoin: round;
      }

      .cls-4 {
        font-size: 12px;
        font-family: SegoeUI-Light, Segoe UI;
        font-weight: 300;
        letter-spacing: 0.05em;
      }

      .cls-5 {
        font-size: 15px;
        font-family: SegoeUI, Segoe UI;
      }

      .cls-6 {
        filter: url(#Equivale_a_talar_54_árboles);
      }

      .cls-7 {
        filter: url(#Path_1050);
      }

      .cls-8 {
        filter: url(#Path_1049);
      }

      .cls-9 {
        filter: url(#Path_1048);
      }

      .cls-10 {
        filter: url(#Path_1047);
      }

      .cls-11 {
        filter: url(#Path_1046);
      }

      .cls-12 {
        filter: url(#Path_1045);
      }

      .cls-13 {
        filter: url(#Ellipse_408);
      }
    </style>
    <filter id="Ellipse_408" x="39.5" y="79.462" width="31.038" height="31.038" filterUnits="userSpaceOnUse">
      <feOffset input="SourceAlpha"/>
      <feGaussianBlur stdDeviation="3" result="blur"/>
      <feFlood flood-color="#02b5bd"/>
      <feComposite operator="in" in2="blur"/>
      <feComposite in="SourceGraphic"/>
    </filter>
    <filter id="Path_1045" x="48.018" y="80.461" width="22.292" height="23.2" filterUnits="userSpaceOnUse">
      <feOffset input="SourceAlpha"/>
      <feGaussianBlur stdDeviation="3" result="blur-2"/>
      <feFlood flood-color="#02b5bd"/>
      <feComposite operator="in" in2="blur-2"/>
      <feComposite in="SourceGraphic"/>
    </filter>
    <filter id="Path_1046" x="44.398" y="89.505" width="23.253" height="20.419" filterUnits="userSpaceOnUse">
      <feOffset input="SourceAlpha"/>
      <feGaussianBlur stdDeviation="3" result="blur-3"/>
      <feFlood flood-color="#02b5bd"/>
      <feComposite operator="in" in2="blur-3"/>
      <feComposite in="SourceGraphic"/>
    </filter>
    <filter id="Path_1047" x="41.076" y="81.267" width="21.989" height="26.876" filterUnits="userSpaceOnUse">
      <feOffset input="SourceAlpha"/>
      <feGaussianBlur stdDeviation="3" result="blur-4"/>
      <feFlood flood-color="#02b5bd"/>
      <feComposite operator="in" in2="blur-4"/>
      <feComposite in="SourceGraphic"/>
    </filter>
    <filter id="Path_1048" x="42.225" y="74.456" width="24.742" height="23.213" filterUnits="userSpaceOnUse">
      <feOffset input="SourceAlpha"/>
      <feGaussianBlur stdDeviation="3" result="blur-5"/>
      <feFlood flood-color="#02b5bd"/>
      <feComposite operator="in" in2="blur-5"/>
      <feComposite in="SourceGraphic"/>
    </filter>
    <filter id="Path_1049" x="45.519" y="74.565" width="22.753" height="22.351" filterUnits="userSpaceOnUse">
      <feOffset input="SourceAlpha"/>
      <feGaussianBlur stdDeviation="3" result="blur-6"/>
      <feFlood flood-color="#02b5bd"/>
      <feComposite operator="in" in2="blur-6"/>
      <feComposite in="SourceGraphic"/>
    </filter>
    <filter id="Path_1050" x="40.597" y="72.896" width="23.646" height="23.471" filterUnits="userSpaceOnUse">
      <feOffset input="SourceAlpha"/>
      <feGaussianBlur stdDeviation="3" result="blur-7"/>
      <feFlood flood-color="#02b5bd"/>
      <feComposite operator="in" in2="blur-7"/>
      <feComposite in="SourceGraphic"/>
    </filter>
    <filter id="Equivale_a_talar_54_árboles" x="0" y="25" width="192" height="38" filterUnits="userSpaceOnUse">
      <feOffset input="SourceAlpha"/>
      <feGaussianBlur stdDeviation="3" result="blur-8"/>
      <feFlood flood-color="#ffe660"/>
      <feComposite operator="in" in2="blur-8"/>
      <feComposite in="SourceGraphic"/>
    </filter>
  </defs>
  <g id="Group_3464" data-name="Group 3464" transform="translate(-92 -471)">
    <g id="Group_2955" data-name="Group 2955" transform="translate(0 -108)">
      <g id="Group_2956" data-name="Group 2956" transform="translate(72.762 145.188)">
        <rect id="Rectangle_2258" data-name="Rectangle 2258" class="cls-1" width="28.541" height="1.975" transform="translate(60.468 537.056)"/>
        <g id="Group_2958" data-name="Group 2958" transform="translate(67.738 515.709)">
          <g class="cls-13" transform="matrix(1, 0, 0, 1, -48.5, -81.9)">
            <circle id="Ellipse_408-2" data-name="Ellipse 408" class="cls-2" cx="6.019" cy="6.019" r="6.019" transform="translate(49 88.96)"/>
          </g>
          <g class="cls-12" transform="matrix(1, 0, 0, 1, -48.5, -81.9)">
            <path id="Path_1045-2" data-name="Path 1045" class="cls-2" d="M63.3,53.2s-.588,1.956.506,2.6a24.9,24.9,0,0,1,2.75,2.079" transform="translate(-5.58 36.41)"/>
          </g>
          <g class="cls-11" transform="matrix(1, 0, 0, 1, -48.5, -81.9)">
            <path id="Path_1046-2" data-name="Path 1046" class="cls-2" d="M40.924,122.812l-3.187-.862s-1.3-.15-1.368.862l-.068,1.012" transform="translate(17.6 -22.93)"/>
          </g>
          <g class="cls-10" transform="matrix(1, 0, 0, 1, -48.5, -81.9)">
            <path id="Path_1047-2" data-name="Path 1047" class="cls-2" d="M8.7,68.552l1.655.15s.547.137.588-1.026l.041-1.163a2.492,2.492,0,0,1,.821-1.915c.958-1.026-.52-2.161-.52-2.161L9.439,60.7" transform="translate(41.42 29.93)"/>
          </g>
          <g class="cls-9" transform="matrix(1, 0, 0, 1, -48.5, -81.9)">
            <path id="Path_1048-2" data-name="Path 1048" class="cls-3" d="M26.131,13.241a5.334,5.334,0,0,1-1.258.821,2.134,2.134,0,0,0-1.19,2.052,3.587,3.587,0,0,0-1.874-3.05c-1.245-.766-1.45-1.053-1.423-1.163" transform="translate(31.34 72.06)"/>
          </g>
          <g class="cls-8" transform="matrix(1, 0, 0, 1, -48.5, -81.9)">
            <path id="Path_1049-2" data-name="Path 1049" class="cls-3" d="M44.5,14.246s.315-1.272,2-.958,1.751-.588,1.751-.588.109,3.215-2.23,3.351" transform="translate(10.52 71.37)"/>
          </g>
          <g class="cls-7" transform="matrix(1, 0, 0, 1, -48.5, -81.9)">
            <path id="Path_1050-2" data-name="Path 1050" class="cls-3" d="M13.075,3.14s.725-1.956-2.12-2.052S8.547.5,8.547.5s-.055,2.873,1.86,4.241a1.6,1.6,0,0,0,1.559,0" transform="translate(41.57 81.9)"/>
          </g>
        </g>
      </g>
      <text id="IMPACTO_AMBIENTAL" data-name="IMPACTO AMBIENTAL" class="cls-4" transform="translate(188 592)"><tspan x="-59.541" y="0">IMPACTO AMBIENTAL</tspan></text>
    </g>
    <g class="cls-6" transform="matrix(1, 0, 0, 1, 92, 471)">
      <text id="Equivale_a_talar_54_árboles-2" data-name="Equivale a talar 54 árboles" class="cls-5" transform="translate(96 50)"><tspan x="-86.283" y="0">Equivale a talar 54 árboles</tspan></text>
    </g>
  </g>
</svg>
