<svg xmlns="http://www.w3.org/2000/svg" xmlns:xlink="http://www.w3.org/1999/xlink" viewBox="0 0 341.896 338.896">
  <defs>
    <style>
      g {
        pointer-events: bounding-box;
      }
      .cls-1 {
        fill: none;
      }

      .cls-2 {
        fill: #fff;
      }

      .cls-3 {
        fill: #00ffd2;
      }

      .cls-4 {
        fill: #5c5d5e;
      }

      .cls-5 {
        fill: #00d5bc;
      }

      .cls-6 {
        clip-path: url(#clip-path);
      }

      .cls-7 {
        clip-path: url(#clip-path-2);
      }

      .cls-8 {
        filter: url(#small_circle);
      }

      .cls-9 {
        filter: url(#teal_circle);
      }

      .cls-10 {
        filter: url(#big_circle);
      }
    </style>
    <filter id="big_circle" x="0" y="0" width="341.896" height="338.896" filterUnits="userSpaceOnUse">
      <feOffset input="SourceAlpha"/>
      <feGaussianBlur stdDeviation="3" result="blur"/>
      <feFlood flood-opacity="0.161"/>
      <feComposite operator="in" in2="blur"/>
      <feComposite in="SourceGraphic"/>
    </filter>
    <filter id="teal_circle" x="32.896" y="31.896" width="278" height="278" filterUnits="userSpaceOnUse">
      <feOffset input="SourceAlpha"/>
      <feGaussianBlur stdDeviation="3" result="blur-2"/>
      <feFlood flood-color="#00ffd2"/>
      <feComposite operator="in" in2="blur-2"/>
      <feComposite in="SourceGraphic"/>
    </filter>
    <clipPath id="clip-path">
      <path id="Path_1069" data-name="Path 1069" class="cls-1" d="M0-9.833H32.5V0H0Z"/>
    </clipPath>
    <clipPath id="clip-path-2">
      <path id="Path_1082" data-name="Path 1082" class="cls-1" d="M0-10.756H45.063V0H0Z"/>
    </clipPath>
    <filter id="small_circle" x="45.896" y="44.896" width="251" height="255" filterUnits="userSpaceOnUse">
      <feOffset input="SourceAlpha"/>
      <feGaussianBlur stdDeviation="3" result="blur-3"/>
      <feFlood flood-opacity="0.161"/>
      <feComposite operator="in" in2="blur-3"/>
      <feComposite in="SourceGraphic"/>
    </filter>
  </defs>
  <g id="Group_2926" data-name="Group 2926" transform="translate(13 -401)">
    <g id="Group_2980" data-name="Group 2980">
      <g class="cls-10" transform="matrix(1, 0, 0, 1, -13, 401)">
        <ellipse id="big_circle-2" data-name="big_circle" class="cls-2" cx="161.948" cy="160.448" rx="161.948" ry="160.448" transform="translate(9 9)"/>
      </g>
      <g id="Group_2979" data-name="Group 2979" transform="translate(19530.896 10660.896)">
        <g class="cls-9" transform="matrix(1, 0, 0, 1, -19543.9, -10259.9)">
          <path id="teal_circle-2" data-name="teal_circle" class="cls-3" d="M130,0A130,130,0,1,1,0,130,130,130,0,0,1,130,0Z" transform="translate(41.9 40.9)"/>
        </g>
        <path id="cursor_anos25" class="cls-4" d="M16165.63,22210l2.591,13.727h4.533l2.429-13.727Z" transform="matrix(-0.438, -0.899, 0.899, -0.438, -32142.426, 14127.434)"/>
        <path id="cursor_anos10" class="cls-4" d="M16165.63,22210l2.591,13.727h4.533l2.429-13.727Z" transform="translate(-12658.318 16452.402) rotate(-158)"/>
        <path id="cursor_anual" class="cls-4" d="M16165.63,22210l2.591,13.727h4.533l2.429-13.727Z" transform="translate(2832.461 5928.422) rotate(162)"/>
        <path id="cursor_bimestral" class="cls-4" d="M16165.63,22210l2.591,13.727h4.533l2.429-13.727Z" transform="translate(7892.883 -12568.033) rotate(121)"/>
        <g id="anual_active" transform="translate(-19439.719 -10222.49) rotate(-21)">
          <g id="Group_2982" data-name="Group 2982">
            <path id="Path_1093" data-name="Path 1093" class="cls-5" d="M10.2,9.8a9.852,9.852,0,0,0-1.7.2C8,9.1,7.5,8.3,7,7.4c-1.6.2-3.2.4-4.8.7C2,9,1.8,10,1.6,10.9c-.5.1-1.1.2-1.6.3A104.239,104.239,0,0,1,2.8.2C3.3.1,3.8.1,4.3,0,6.4,3.2,8.4,6.5,10.2,9.8ZM6.4,6.3c-.8-1.5-1.7-3-2.6-4.4-.5,1.6-.9,3.3-1.3,4.9C3.8,6.6,5.1,6.4,6.4,6.3Z"/>
            <path id="Path_1094" data-name="Path 1094" class="cls-5" d="M17.8,9.5H16.3c0-1.3-.1-2.6-.1-4,0-1.2-.3-2.1-1.7-2.1-1.5.1-2,1.2-1.9,2.6.1,1.2.1,2.4.2,3.6-.5,0-1,.1-1.5.1-.2-2.4-.4-4.7-.6-7.1.5,0,1.1-.1,1.6-.1a4.1,4.1,0,0,0,.1,1.1h.1a2.939,2.939,0,0,1,2.4-1.4c2.3-.1,2.9,1.3,2.9,3C17.7,6.7,17.8,8.1,17.8,9.5Z"/>
            <path id="Path_1095" data-name="Path 1095" class="cls-5" d="M26.1,9.8c-.5,0-1-.1-1.5-.1a3.4,3.4,0,0,1,.1-1,2.775,2.775,0,0,1-2.4,1.1,2.459,2.459,0,0,1-2.1-.9,3.425,3.425,0,0,1-.5-2.2c0-1.4,0-2.8.1-4.3h1.6c0,1.4-.1,2.8-.1,4.2,0,1,.2,1.9,1.5,2s2-1,2-2.2c.1-1.3.2-2.5.3-3.8.5,0,1.1.1,1.6.1C26.6,5.1,26.4,7.4,26.1,9.8Z"/>
            <path id="Path_1096" data-name="Path 1096" class="cls-5" d="M34,10.8a7.719,7.719,0,0,0-1.5-.2c0-.3.1-.6.1-.9a3.112,3.112,0,0,1-2.5.7c-1.4-.2-2.5-1.1-2.3-2.5.1-1.4,1.5-2,3.3-1.8.7.1,1.4.1,2.1.2V6c.2-1.1-.6-1.7-1.7-1.9a4.963,4.963,0,0,0-2.5.3c-.1-.3-.3-.7-.4-1A8.281,8.281,0,0,1,31.7,3a3.465,3.465,0,0,1,2.5,1.2,2.591,2.591,0,0,1,.5,2.4C34.5,8.1,34.3,9.4,34,10.8Zm-.9-3.6c-.6-.1-1.2-.1-1.8-.2-1.3-.1-1.8.3-1.9,1s.4,1.3,1.4,1.4a2.564,2.564,0,0,0,2.1-.8A7.845,7.845,0,0,1,33.1,7.2Z"/>
            <path id="Path_1097" data-name="Path 1097" class="cls-5" d="M37.5,11.4,36,11.1,38.1.9c.6.1,1.1.2,1.7.3C39.1,4.7,38.3,8.1,37.5,11.4Z"/>
          </g>
        </g>
        <g id="anual" transform="matrix(0.94, -0.342, 0.342, 0.94, -19433.338, -10215.072)">
          <g id="Group_2967" data-name="Group 2967" class="cls-6">
            <g id="Group_2962" data-name="Group 2962" transform="translate(5.755 -4.452)">
              <path id="Path_1064" data-name="Path 1064" class="cls-4" d="M0,0Q-1.305-2.16-2.721-4.288-3.5-1.862-4.129.569C-2.753.346-1.376.15,0,0M2.724,3.1c-.287.022-.575.051-.862.075Q1.139,1.884.378.612q-2.34.252-4.676.645c-.245.951-.471,1.906-.68,2.857l-.777.147a84.2,84.2,0,0,1,2.7-9.579c.155-.024.308-.044.462-.064C-.679-2.61,1.1.214,2.724,3.1"/>
            </g>
            <g id="Group_2963" data-name="Group 2963" transform="translate(14.582 -1.617)">
              <path id="Path_1065" data-name="Path 1065" class="cls-4" d="M0,0C-.242,0-.484,0-.727.006Q-.751-1.78-.776-3.568C-.788-4.54-.989-5.55-2.467-5.508S-4.586-4.279-4.49-2.852c.063,1,.127,1.987.192,2.985-.236.013-.474.031-.712.045Q-5.24-2.831-5.45-5.84c.259-.017.513-.039.772-.049.023.371.045.744.068,1.117A2.366,2.366,0,0,1-2.457-6.095C-.477-6.146-.016-5.027-.014-3.6Q-.009-1.8,0,0"/>
            </g>
            <g id="Group_2964" data-name="Group 2964" transform="translate(21.448 -1.332)">
              <path id="Path_1066" data-name="Path 1066" class="cls-4" d="M0,0C-.236-.02-.474-.041-.711-.058c.028-.321.056-.647.082-.971A2.372,2.372,0,0,1-2.77-.058,2.045,2.045,0,0,1-4.455-.8a3.02,3.02,0,0,1-.439-1.91Q-4.85-4.5-4.812-6.3l.77.021q-.057,1.842-.119,3.69c-.03.914.12,1.883,1.52,1.95S-.577-1.678-.478-2.844q.133-1.611.26-3.227c.257.02.514.04.771.063Q.286-3.005,0,0"/>
            </g>
            <g id="Group_2965" data-name="Group 2965" transform="translate(27.679 -3.64)">
              <path id="Path_1067" data-name="Path 1067" class="cls-4" d="M0,0C-.634-.064-1.266-.128-1.9-.178-3.292-.3-3.794.2-3.874.846s.372,1.283,1.4,1.42A2.639,2.639,0,0,0-.26,1.474C-.172.98-.086.492,0,0M.187,3.133l-.722-.12c.05-.279.1-.554.15-.833A3.047,3.047,0,0,1-2.7,2.827,1.961,1.961,0,0,1-4.6.766C-4.488-.262-3.552-.9-1.744-.721c.611.06,1.223.132,1.833.207.018-.108.037-.215.056-.32C.335-1.922-.415-2.6-1.493-2.748a3.94,3.94,0,0,0-2.079.264c-.078-.174-.157-.348-.237-.524a4.442,4.442,0,0,1,2.37-.325,2.8,2.8,0,0,1,1.962.979A2.216,2.216,0,0,1,.849-.389Q.525,1.37.187,3.133"/>
            </g>
            <g id="Group_2966" data-name="Group 2966" transform="translate(30.552 0.001)">
              <path id="Path_1068" data-name="Path 1068" class="cls-4" d="M0,0C-.235-.049-.473-.1-.708-.144q.978-4.393,1.855-8.8c.266.052.533.105.8.16Q1.028-4.385,0,0"/>
            </g>
          </g>
        </g>
        <g id="anos10_active" transform="translate(-19343.074 -10239.015) rotate(21)">
          <g id="Group_3285" data-name="Group 3285">
            <path id="Path_1464" data-name="Path 1464" class="cls-5" d="M5.8,11.89c-.49.09-.98.17-1.47.27Q3.385,7.6,2.5,3.03L.22,3.48C.15,3.13.07,2.78,0,2.44c1.3-.27,2.6-.51,3.9-.74Q4.815,6.8,5.8,11.89Z"/>
            <path id="Path_1465" data-name="Path 1465" class="cls-5" d="M12.66,11.05C9.78,11.4,8.12,9,7.68,6.35S8.18.85,11.35.47c3.19-.37,4.74,2.18,4.96,4.87C16.53,8.01,15.54,10.72,12.66,11.05ZM11.49,1.68c-1.88.22-2.57,2.06-2.22,4.4s1.48,3.91,3.22,3.7,2.43-1.99,2.2-4.34S13.38,1.46,11.49,1.68Z"/>
            <path id="Path_1466" data-name="Path 1466" class="cls-5" d="M27.14,10.03c-.48,0-.97,0-1.46.01l-.03-.9a3.222,3.222,0,0,1-2.35,1.12,2.392,2.392,0,0,1-2.69-2.1c-.08-1.39,1.11-2.17,2.9-2.29l2.06-.12V5.46c-.01-1.08-.83-1.61-1.97-1.58a4.982,4.982,0,0,0-2.33.7c-.17-.31-.35-.62-.52-.94a6.165,6.165,0,0,1,2.92-.83,3.564,3.564,0,0,1,2.62.77,2.777,2.777,0,0,1,.84,2.31C27.15,7.27,27.15,8.65,27.14,10.03ZM25.62,6.62c-.6.04-1.19.09-1.79.14-1.24.09-1.72.61-1.69,1.29s.61,1.21,1.6,1.18a2.41,2.41,0,0,0,1.89-1.07C25.63,7.64,25.62,7.13,25.62,6.62Z"/>
            <path id="Path_1467" data-name="Path 1467" class="cls-5" d="M35.53,10.32c-.5-.03-1-.07-1.5-.09.08-1.32.16-2.65.24-3.97.07-1.2-.1-2.11-1.51-2.18-1.47-.06-2.05,1.05-2.08,2.42-.04,1.19-.07,2.39-.11,3.58-.5-.01-1-.03-1.5-.03.04-2.37.08-4.75.12-7.12.53.01,1.06.02,1.59.04-.02.37-.03.75-.05,1.12h.05a2.678,2.678,0,0,1,2.45-1.17c2.25.11,2.74,1.5,2.61,3.2C35.74,7.52,35.64,8.92,35.53,10.32ZM35.35.41A1.552,1.552,0,0,1,33.72,1.7a2.516,2.516,0,0,1-1.2-.39A2.09,2.09,0,0,0,31.56.9a.758.758,0,0,0-.76.62c-.26-.06-.52-.11-.79-.17A1.537,1.537,0,0,1,31.6,0a2.4,2.4,0,0,1,1.19.39,2.491,2.491,0,0,0,.98.41.781.781,0,0,0,.78-.59C34.82.27,35.08.34,35.35.41Z"/>
            <path id="Path_1468" data-name="Path 1468" class="cls-5" d="M40.96,10.99a3.776,3.776,0,0,1-3.61-4.08c.18-2.2,2.13-3.57,4.51-3.3,2.36.27,3.96,2.04,3.61,4.22A3.9,3.9,0,0,1,40.96,10.99Zm.76-6.22A2.4,2.4,0,0,0,38.92,7a2.4,2.4,0,0,0,2.2,2.76,2.452,2.452,0,0,0,2.79-2.2A2.369,2.369,0,0,0,41.72,4.77Z"/>
            <path id="Path_1469" data-name="Path 1469" class="cls-5" d="M50.8,11.86a3.483,3.483,0,0,1-2.19.24,3.755,3.755,0,0,1-2.68-1.74l.87-.72a3.281,3.281,0,0,0,2.03,1.38c.69.12,1.48.03,1.64-.74s-1-1.22-1.48-1.48a6.007,6.007,0,0,1-.98-.55,1.864,1.864,0,0,1-.93-1.88c.21-1.3,1.59-1.82,2.99-1.57a3.577,3.577,0,0,1,2.5,1.42c-.28.25-.56.49-.84.74a2.976,2.976,0,0,0-1.82-1.12c-.76-.13-1.31.08-1.41.66s.6.95,1.32,1.31c.4.21.67.35.97.53a3,3,0,0,1,.78.67,1.642,1.642,0,0,1,.33,1.41A1.976,1.976,0,0,1,50.8,11.86Z"/>
          </g>
        </g>
        <g id="anos10" transform="translate(-19338.701 -10235.451) rotate(21)">
          <g id="Group_2969" data-name="Group 2969">
            <path id="Path_1070" data-name="Path 1070" class="cls-4" d="M4.6,10.2c-.2,0-.5.1-.7.1C3.3,7.6,2.7,4.8,2.2,2.1c-.7.1-1.4.3-2.1.4,0-.2-.1-.4-.1-.6,1-.2,1.9-.4,2.9-.6C3.4,4.3,4,7.3,4.6,10.2Z"/>
            <path id="Path_1071" data-name="Path 1071" class="cls-4" d="M10.6,9.5c-2.4.2-3.8-1.9-4.2-4.1C6,3.1,6.8.6,9.4.3s3.9,1.9,4.1,4.2S12.9,9.2,10.6,9.5ZM9.5.9c-1.9.2-2.6,2-2.3,4.3C7.6,7.5,8.8,9,10.5,8.8s2.4-1.9,2.2-4.2C12.5,2.2,11.3.7,9.5.9Z"/>
            <path id="Path_1072" data-name="Path 1072" class="cls-4" d="M22.4,8.6h-.7V7.8a2.561,2.561,0,0,1-2.1,1,2.028,2.028,0,0,1-2.2-1.7c-.1-1,.7-1.8,2.5-1.9.6,0,1.2-.1,1.8-.1V4.8c0-1.1-.8-1.6-1.9-1.6a3.344,3.344,0,0,0-1.9.6c-.1-.2-.2-.3-.3-.5a3.8,3.8,0,0,1,2.2-.7,3.155,3.155,0,0,1,2,.6c.4.3.6.8.6,1.8Zm-.7-3c-.6,0-1.2.1-1.8.1-1.4.1-1.8.7-1.7,1.3,0,.7.6,1.2,1.6,1.2a2.61,2.61,0,0,0,2-1.1A7.569,7.569,0,0,1,21.7,5.6Z"/>
            <path id="Path_1073" data-name="Path 1073" class="cls-4" d="M29.3,8.8h-.7c.1-1.2.2-2.4.2-3.6.1-1-.1-2-1.5-2.1s-2.2,1.1-2.2,2.5c0,1-.1,2-.1,3h-.7c0-2,.1-4,.1-6h.8V3.7a2.143,2.143,0,0,1,2.2-1.1c1.9.1,2.3,1.2,2.2,2.7C29.5,6.4,29.4,7.6,29.3,8.8ZM29.2.3a1.242,1.242,0,0,1-1.2,1c-.5,0-.8-.3-1-.3a2.563,2.563,0,0,0-.9-.4.562.562,0,0,0-.6.5c-.2,0-.3-.1-.5-.1a1.268,1.268,0,0,1,1.2-1c.5,0,.8.3,1,.3a1.511,1.511,0,0,0,.9.4.787.787,0,0,0,.7-.5A1.034,1.034,0,0,0,29.2.3Z"/>
            <path id="Path_1074" data-name="Path 1074" class="cls-4" d="M34,9.4A3.225,3.225,0,0,1,31,6a3.177,3.177,0,0,1,3.7-2.8,3.2,3.2,0,0,1,3,3.6A3.272,3.272,0,0,1,34,9.4Zm.7-5.7A2.506,2.506,0,0,0,31.8,6a2.568,2.568,0,0,0,5.1.6A2.449,2.449,0,0,0,34.7,3.7Z"/>
            <path id="Path_1075" data-name="Path 1075" class="cls-4" d="M40.4,10.3a2.726,2.726,0,0,1-2.1-1.5l.6-.3a2.2,2.2,0,0,0,1.7,1.2c.8.1,1.6-.1,1.7-.8.2-.8-.9-1.2-1.5-1.5-.5-.3-1.7-.9-1.5-1.9.2-1.1,1.3-1.4,2.3-1.2a2.657,2.657,0,0,1,1.9,1.2,2.186,2.186,0,0,0-.5.3,2.263,2.263,0,0,0-1.5-1c-.7-.1-1.3.1-1.4.7s.6,1,1.3,1.4c.8.4,1.9,1,1.7,2.1A2.306,2.306,0,0,1,40.4,10.3Z"/>
          </g>
        </g>
        <g id="anos25_active" transform="matrix(0.438, 0.899, -0.899, 0.438, -19328.42, -10359.163)">
          <g id="Group_3275" data-name="Group 3275">
            <path id="Path_1440" data-name="Path 1440" class="cls-5" d="M205.17,19.83c-2.43.35-4.85.76-7.27,1.25-.14-.3-.29-.61-.43-.91q1.545-2.085,3.2-4.13c.72-.9,1.53-1.99,1.34-3.13a2.1,2.1,0,0,0-2.71-1.59,3.387,3.387,0,0,0-2.51,2.16c-.34-.22-.68-.45-1.03-.67a4.137,4.137,0,0,1,3.43-2.68c2.35-.41,4.11.58,4.37,2.38s-1.2,3.34-1.78,4.05c-.8.99-1.59,1.99-2.35,2.99q2.775-.525,5.55-.91C205.04,19.04,205.11,19.43,205.17,19.83Z"/>
            <path id="Path_1441" data-name="Path 1441" class="cls-5" d="M210.13,19.4a4.29,4.29,0,0,1-3.79-1.3c.25-.32.49-.63.74-.94a3.379,3.379,0,0,0,2.9,1.06,2.314,2.314,0,1,0-.51-4.57,3.393,3.393,0,0,0-1.93.77c-.28-.11-.57-.22-.86-.33.12-1.65.25-3.3.39-4.94q2.94-.345,5.88-.57l.09,1.17c-1.55.12-3.1.26-4.65.43-.1.93-.2,1.86-.29,2.79a4.147,4.147,0,0,1,1.58-.44c1.86-.19,3.97.78,4.13,3.04C213.99,17.82,212.14,19.18,210.13,19.4Z"/>
            <path id="Path_1442" data-name="Path 1442" class="cls-5" d="M224.92,18.52c-.48-.01-.97-.01-1.45-.01-.01-.3-.01-.6-.02-.9a3.216,3.216,0,0,1-2.36,1.09,2.366,2.366,0,0,1-2.65-2.13c-.06-1.39,1.14-2.15,2.92-2.26.68-.04,1.37-.07,2.05-.09v-.29c0-1.08-.81-1.62-1.94-1.6a4.986,4.986,0,0,0-2.33.67c-.17-.31-.34-.63-.51-.94a6.218,6.218,0,0,1,2.92-.79,3.532,3.532,0,0,1,2.6.8,2.747,2.747,0,0,1,.81,2.32C224.95,15.76,224.94,17.14,224.92,18.52Zm-1.48-3.42-1.78.12c-1.24.08-1.72.59-1.7,1.27s.59,1.21,1.58,1.2a2.438,2.438,0,0,0,1.9-1.05Z"/>
            <path id="Path_1443" data-name="Path 1443" class="cls-5" d="M233.3,18.88c-.5-.04-1-.07-1.5-.1.09-1.32.18-2.64.27-3.97.08-1.2-.09-2.12-1.49-2.19-1.46-.07-2.05,1.04-2.1,2.4-.05,1.19-.09,2.39-.14,3.58-.5-.02-1-.03-1.5-.05.07-2.37.13-4.75.19-7.12.53.01,1.06.03,1.59.05-.02.37-.04.75-.06,1.12h.05a2.667,2.667,0,0,1,2.45-1.15c2.24.13,2.72,1.52,2.58,3.22C233.53,16.08,233.42,17.48,233.3,18.88Zm-.11-9.92a1.55,1.55,0,0,1-1.63,1.28,2.58,2.58,0,0,1-1.19-.39,2.2,2.2,0,0,0-.96-.42.747.747,0,0,0-.76.62l-.78-.18a1.545,1.545,0,0,1,1.6-1.34,2.4,2.4,0,0,1,1.18.4,2.439,2.439,0,0,0,.97.41.781.781,0,0,0,.78-.58C232.67,8.83,232.93,8.89,233.19,8.96Z"/>
            <path id="Path_1444" data-name="Path 1444" class="cls-5" d="M238.72,19.57a3.78,3.78,0,0,1-3.59-4.09c.19-2.2,2.15-3.56,4.51-3.28s3.94,2.05,3.58,4.23A3.844,3.844,0,0,1,238.72,19.57Zm.79-6.21a2.394,2.394,0,0,0-2.8,2.22,2.4,2.4,0,0,0,2.18,2.77,2.453,2.453,0,0,0,2.8-2.19A2.387,2.387,0,0,0,239.51,13.36Z"/>
            <path id="Path_1445" data-name="Path 1445" class="cls-5" d="M248.56,20.47a3.41,3.41,0,0,1-2.19.23,3.714,3.714,0,0,1-2.67-1.74c.29-.24.58-.48.87-.71a3.216,3.216,0,0,0,2.03,1.38c.69.12,1.48.03,1.64-.74s-.99-1.23-1.48-1.48a5.861,5.861,0,0,1-.97-.55,1.85,1.85,0,0,1-.92-1.89c.21-1.3,1.59-1.82,2.99-1.57a3.574,3.574,0,0,1,2.49,1.42c-.28.25-.56.49-.84.74a2.976,2.976,0,0,0-1.82-1.12c-.76-.14-1.3.08-1.41.65s.6.95,1.31,1.31c.4.21.67.35.97.53a3,3,0,0,1,.78.67,1.642,1.642,0,0,1,.33,1.41A2.058,2.058,0,0,1,248.56,20.47Z"/>
          </g>
        </g>
        <g id="anos25" transform="matrix(0.438, 0.899, -0.899, 0.438, -19258.18, -10169.76)">
          <g id="Group_2977" data-name="Group 2977" class="cls-7">
            <g id="Group_2971" data-name="Group 2971" transform="translate(7.71 -1.028)">
              <path id="Path_1076" data-name="Path 1076" class="cls-4" d="M0,0C-1.988.283-3.974.633-5.959,1.028l-.25-.481c.9-1.269,1.844-2.528,2.824-3.772C-2.859-3.909-2-5.031-2.178-6.189a2.11,2.11,0,0,0-2.7-1.623,2.692,2.692,0,0,0-2.18,2.019c-.215-.068-.432-.137-.648-.2A3.281,3.281,0,0,1-4.992-8.428c1.857-.324,3.368.516,3.6,2.094S-2.537-3.3-2.941-2.771Q-4.117-1.285-5.215.217-2.661-.272-.1-.644L0,0"/>
            </g>
            <g id="Group_2972" data-name="Group 2972" transform="translate(11.794 -1.38)">
              <path id="Path_1077" data-name="Path 1077" class="cls-4" d="M0,0A3.318,3.318,0,0,1-3.06-1.17c.165-.154.331-.3.5-.457A2.751,2.751,0,0,0,0-.641,2.322,2.322,0,0,0,2.246-3.175,2.312,2.312,0,0,0-.517-5.229a2.7,2.7,0,0,0-1.65.668c-.176-.064-.354-.132-.53-.2.13-1.39.278-2.786.438-4.179q2.291-.27,4.576-.44c.016.207.033.414.048.622Q.384-8.6-1.6-8.383q-.19,1.472-.359,2.947A3.668,3.668,0,0,1-.513-5.858,3,3,0,0,1,3.014-3.236,3.081,3.081,0,0,1,0,0"/>
            </g>
            <g id="Group_2973" data-name="Group 2973" transform="translate(23.274 -5.18)">
              <path id="Path_1078" data-name="Path 1078" class="cls-4" d="M0,0C-.616.035-1.23.071-1.844.114-3.2.2-3.613.767-3.592,1.414s.561,1.216,1.58,1.2A2.5,2.5,0,0,0,0,1.494C0,.992,0,.5,0,0M.71,3.06c-.241,0-.48,0-.719,0,0-.284,0-.565,0-.845a2.852,2.852,0,0,1-2.13.99A1.96,1.96,0,0,1-4.311,1.438C-4.354.405-3.541-.357-1.783-.445-1.187-.476-.593-.5,0-.521,0-.628,0-.739,0-.846A1.617,1.617,0,0,0-1.854-2.485,3.73,3.73,0,0,0-3.8-1.922c-.1-.163-.2-.317-.3-.485a4.236,4.236,0,0,1,2.211-.664A2.628,2.628,0,0,1,.12-2.4,2.318,2.318,0,0,1,.746-.517C.734.677.721,1.866.71,3.06"/>
            </g>
            <g id="Group_2974" data-name="Group 2974" transform="translate(30.784 -10.339)">
              <path id="Path_1079" data-name="Path 1079" class="cls-4" d="M0,0A1.13,1.13,0,0,1-1.191.928,2.154,2.154,0,0,1-2.168.59,2.1,2.1,0,0,0-3.03.227a.617.617,0,0,0-.636.521C-3.824.7-3.984.646-4.142.6a1.121,1.121,0,0,1,1.18-.958,1.986,1.986,0,0,1,.972.331,2.226,2.226,0,0,0,.862.371A.651.651,0,0,0-.462-.16c.154.053.309.106.462.16M.065,8.5l-.719-.051c.089-1.187.172-2.379.257-3.566.071-.968-.046-1.989-1.48-2.069S-4.038,3.857-4.086,5.286Q-4.14,6.78-4.2,8.274c-.235-.006-.471-.014-.706-.022.058-2.008.12-4.018.173-6.029.249.006.5.016.749.023Q-4,2.8-4.019,3.363a2.321,2.321,0,0,1,2.2-1.129C.1,2.344.463,3.488.35,4.912.255,6.107.162,7.307.065,8.5"/>
            </g>
            <g id="Group_2975" data-name="Group 2975" transform="translate(36.238 -6.896)">
              <path id="Path_1080" data-name="Path 1080" class="cls-4" d="M0,0A2.444,2.444,0,0,0-2.857,2.246,2.453,2.453,0,0,0-.635,5.033,2.515,2.515,0,0,0,2.244,2.85,2.413,2.413,0,0,0,0,0M-.713,5.64A3.168,3.168,0,0,1-3.63,2.2,3.169,3.169,0,0,1,.072-.582,3.128,3.128,0,0,1,3.009,2.985,3.253,3.253,0,0,1-.713,5.64"/>
            </g>
            <g id="Group_2976" data-name="Group 2976" transform="translate(41.914 -0.306)">
              <path id="Path_1081" data-name="Path 1081" class="cls-4" d="M0,0A2.639,2.639,0,0,1-2.087-1.541l.574-.3A2.249,2.249,0,0,0,.146-.6c.787.139,1.559-.072,1.723-.843S.935-2.695.409-2.972s-1.67-.86-1.489-1.941a1.816,1.816,0,0,1,2.3-1.247A2.64,2.64,0,0,1,3.149-4.936l-.541.32A2.105,2.105,0,0,0,1.087-5.6c-.747-.132-1.336.108-1.443.728S.19-3.869.94-3.472c.765.4,1.9,1.027,1.652,2.146A2.08,2.08,0,0,1,0,0"/>
            </g>
          </g>
        </g>
        <g id="bimestral_active" transform="matrix(0.485, -0.875, 0.875, 0.485, -19517.838, -10135.15)">
          <g id="Group_2960" data-name="Group 2960">
            <path id="Path_1055" data-name="Path 1055" class="cls-5" d="M8.2,10.1a4.478,4.478,0,0,1-2.6,1.1c-1.2.2-2.3.4-3.5.7C1.4,8.6.7,5.2,0,1.8c1-.2,2.1-.4,3.1-.6a5.288,5.288,0,0,1,2.8,0A2.285,2.285,0,0,1,7.5,3.1,2.411,2.411,0,0,1,6.2,5.6h0c1.6,0,2.7.7,2.9,2.1A2.781,2.781,0,0,1,8.2,10.1ZM4.9,2.3a4.221,4.221,0,0,0-1.6,0l-1.5.3c.2,1.1.4,2.1.7,3.2a5.853,5.853,0,0,1,1.3-.2A3.539,3.539,0,0,0,5.4,5a1.721,1.721,0,0,0,.5-1.5A1.41,1.41,0,0,0,4.9,2.3ZM6.4,6.6a3.4,3.4,0,0,0-2,0c-.6.1-1.1.2-1.7.3.3,1.2.5,2.4.7,3.6.5-.1,1.1-.2,1.6-.3a4.717,4.717,0,0,0,1.9-.7,1.6,1.6,0,0,0,.5-1.6A1.655,1.655,0,0,0,6.4,6.6Z"/>
            <path id="Path_1056" data-name="Path 1056" class="cls-5" d="M10.7,1.8c-.6,0-1.1-.3-1.1-.8-.1-.5.3-.9.9-1s1.1.2,1.1.7A.945.945,0,0,1,10.7,1.8Zm2,8.4c-.5.1-1,.1-1.5.2-.4-2.3-.7-4.7-1.1-7.1.5-.1,1-.1,1.6-.2C12,5.5,12.3,7.8,12.7,10.2Z"/>
            <path id="Path_1057" data-name="Path 1057" class="cls-5" d="M25.5,9a7.569,7.569,0,0,0-1.5.1c-.1-1.4-.2-2.8-.2-4.1,0-.8-.3-1.9-1.5-1.8s-1.8,1.2-1.7,2.5c.1,1.2.2,2.5.3,3.7-.5,0-1,.1-1.5.1-.1-1.4-.2-2.8-.4-4.1-.1-1-.4-1.9-1.6-1.8s-1.7,1.3-1.6,2.5.3,2.5.4,3.7c-.5.1-1,.1-1.5.2-.3-2.4-.6-4.7-.9-7.1.5-.1,1-.1,1.6-.2,0,.4.1.7.1,1.1h0a2.639,2.639,0,0,1,2.1-1.5A2.21,2.21,0,0,1,20,3.5a2.826,2.826,0,0,1,2.4-1.6c2.1-.1,2.7,1.3,2.8,2.8S25.4,7.6,25.5,9Z"/>
            <path id="Path_1058" data-name="Path 1058" class="cls-5" d="M34.2,5.7H28.4A2.286,2.286,0,0,0,30.8,8a4.584,4.584,0,0,0,2.5-.8,5.547,5.547,0,0,0,.6.8,4.567,4.567,0,0,1-3.3,1.1,3.6,3.6,0,0,1-3.8-3.7,3.677,3.677,0,0,1,3.8-3.8c2.2,0,3.7,1.4,3.6,3.4C34.2,5.3,34.2,5.7,34.2,5.7Zm-1.4-1a2.047,2.047,0,0,0-2.2-2,2.127,2.127,0,0,0-2.2,2.1C29.8,4.7,31.3,4.7,32.8,4.7Z"/>
            <path id="Path_1059" data-name="Path 1059" class="cls-5" d="M39.9,8.7a2.769,2.769,0,0,1-2.1.5A3.81,3.81,0,0,1,35,7.8c.2-.3.5-.5.7-.8a2.948,2.948,0,0,0,2.2,1.1c.7,0,1.4-.2,1.5-1,0-.8-1.1-1.1-1.6-1.3a5.133,5.133,0,0,1-1-.4,1.614,1.614,0,0,1-1.1-1.7c0-1.3,1.3-2,2.7-2A3.72,3.72,0,0,1,41,2.8a5.716,5.716,0,0,1-.7.8,3.1,3.1,0,0,0-1.9-.9c-.7,0-1.2.3-1.3.8,0,.6.7.9,1.4,1.1a6.9,6.9,0,0,0,1,.4,1.555,1.555,0,0,1,.8.6A1.518,1.518,0,0,1,40.8,7,2.374,2.374,0,0,1,39.9,8.7Z"/>
            <path id="Path_1060" data-name="Path 1060" class="cls-5" d="M45.7,9.5a3.483,3.483,0,0,1-1.4.1,1.8,1.8,0,0,1-1.5-.9c-.3-.5-.3-1-.2-2.2.1-1.1.2-2.2.2-3.2-.4,0-.8-.1-1.1-.1,0-.4.1-.8.1-1.2.4,0,.8.1,1.1.1.1-.6.1-1.3.2-2,.5,0,1.1.1,1.6.1-.1.7-.1,1.4-.2,2.1.6.1,1.2.1,1.9.2,0,.4-.1.8-.1,1.1-.6-.1-1.2-.1-1.8-.2-.1,1.1-.2,2.1-.3,3.2-.2.7-.2,1.1,0,1.4a.72.72,0,0,0,.7.4,3.784,3.784,0,0,0,.8-.1Z"/>
            <path id="Path_1061" data-name="Path 1061" class="cls-5" d="M51.7,4.4h0a4.649,4.649,0,0,0-.9-.3,1.623,1.623,0,0,0-1.3.4,2.692,2.692,0,0,0-.7,1.7c-.1,1.2-.3,2.4-.4,3.5-.5-.1-1-.1-1.5-.2.3-2.4.5-4.7.8-7.1.5.1,1,.1,1.6.2,0,.4-.1.7-.1,1.1h0a2.016,2.016,0,0,1,2.1-1,2.767,2.767,0,0,0,.7.4C51.9,3.6,51.8,4,51.7,4.4Z"/>
            <path id="Path_1062" data-name="Path 1062" class="cls-5" d="M57.8,11.3c-.5-.1-1-.2-1.4-.3a2.769,2.769,0,0,0,.1-.9,3.536,3.536,0,0,1-2.5.7,2.31,2.31,0,0,1-2.2-2.6C52,6.9,53.3,6.3,55,6.5c.7.1,1.4.2,2,.3a.367.367,0,0,1,.1-.3c.2-1.1-.5-1.7-1.6-1.9a3.824,3.824,0,0,0-2.4.3c-.1-.3-.2-.7-.3-1a6.4,6.4,0,0,1,3-.3,3.587,3.587,0,0,1,2.4,1.2,2.927,2.927,0,0,1,.4,2.4C58.3,8.6,58.1,9.9,57.8,11.3Zm-.9-3.7c-.6-.1-1.2-.1-1.8-.2-1.2-.1-1.8.3-1.9,1s.4,1.3,1.3,1.4a2.916,2.916,0,0,0,2.1-.7A4.013,4.013,0,0,0,56.9,7.6Z"/>
            <path id="Path_1063" data-name="Path 1063" class="cls-5" d="M61.3,11.9l-1.5-.3L61.9,1.4c.5.1,1.1.2,1.6.3C62.7,5.2,62,8.6,61.3,11.9Z"/>
          </g>
        </g>
        <g id="bimestral" transform="matrix(0.454, -0.891, 0.891, 0.454, -19515.422, -10134.371)">
          <g id="Group_2984" data-name="Group 2984">
            <path id="Path_1098" data-name="Path 1098" class="cls-4" d="M6.6,8.5a3.771,3.771,0,0,1-2.2,1c-.8.2-1.7.3-2.5.5C1.2,7.1.6,4.2,0,1.2A16.958,16.958,0,0,1,2.2.8,3.877,3.877,0,0,1,4.6.8,1.89,1.89,0,0,1,5.8,2.4,1.962,1.962,0,0,1,4.6,4.6C6,4.6,7,5.2,7.2,6.4A2.1,2.1,0,0,1,6.6,8.5ZM4,1.4a4.221,4.221,0,0,0-1.6,0L.9,1.7c.2,1.1.5,2.2.7,3.3.4-.1.9-.2,1.3-.3a2.673,2.673,0,0,0,1.6-.6A1.412,1.412,0,0,0,5,2.6,1.2,1.2,0,0,0,4,1.4ZM5.4,5.3a4.95,4.95,0,0,0-2.1,0c-.5.1-1.1.2-1.6.3.3,1.2.5,2.4.8,3.6L4,8.9a3.96,3.96,0,0,0,1.9-.7,1.583,1.583,0,0,0,.6-1.6A1.63,1.63,0,0,0,5.4,5.3Z"/>
            <path id="Path_1099" data-name="Path 1099" class="cls-4" d="M8.7,1.1A.505.505,0,0,1,8,.6.56.56,0,0,1,8.5,0c.3,0,.7.2.7.5A.56.56,0,0,1,8.7,1.1Zm1.4,7.5c-.2,0-.5.1-.7.1l-.9-6c.2,0,.5-.1.7-.1Z"/>
            <path id="Path_1100" data-name="Path 1100" class="cls-4" d="M20.7,7.7H20c-.1-1.2-.1-2.4-.2-3.7,0-.7-.2-1.9-1.5-1.8a2.111,2.111,0,0,0-1.8,2.5c.1,1,.2,2.1.3,3.1a1.7,1.7,0,0,0-.7.1c-.1-1.2-.2-2.4-.3-3.7-.1-1-.4-1.9-1.6-1.8-1.3.1-1.8,1.3-1.7,2.6.1,1,.2,2.1.4,3.1-.2,0-.5.1-.7.1-.2-2-.5-4-.7-6,.2,0,.5-.1.7-.1,0,.4.1.7.1,1.1a2.214,2.214,0,0,1,1.8-1.4,1.941,1.941,0,0,1,2.1,1.1,2.471,2.471,0,0,1,2-1.4A2.237,2.237,0,0,1,20.5,4C20.6,5.2,20.6,6.5,20.7,7.7Z"/>
            <path id="Path_1101" data-name="Path 1101" class="cls-4" d="M28,4.7H22.8A2.229,2.229,0,0,0,25.2,7a3.267,3.267,0,0,0,2.2-.8c.1.2.2.3.3.5a3.533,3.533,0,0,1-2.6.9A2.993,2.993,0,0,1,22,4.5a2.966,2.966,0,0,1,3.1-3.2A2.7,2.7,0,0,1,28,4.1.931.931,0,0,1,28,4.7Zm-.7-.6A2.119,2.119,0,0,0,25.1,2a2.216,2.216,0,0,0-2.3,2.1Z"/>
            <path id="Path_1102" data-name="Path 1102" class="cls-4" d="M31.1,7.8a2.381,2.381,0,0,1-2.2-1.3,1.756,1.756,0,0,0,.5-.4,2.1,2.1,0,0,0,1.8,1c.8,0,1.5-.3,1.5-1.1.1-.8-1.1-1.1-1.6-1.3S29.4,4.1,29.4,3s1.1-1.6,2.1-1.5a2.328,2.328,0,0,1,2,1c-.2.1-.3.3-.5.4a2.258,2.258,0,0,0-1.6-.8c-.7,0-1.3.3-1.3.9s.7.9,1.4,1.2c.8.3,2,.8,1.9,1.9A1.97,1.97,0,0,1,31.1,7.8Z"/>
            <path id="Path_1103" data-name="Path 1103" class="cls-4" d="M37.3,8.1a1.752,1.752,0,0,1-1,.1,1.288,1.288,0,0,1-1.1-.7,5.187,5.187,0,0,1-.1-1.9l.3-3c-.3,0-.7-.1-1-.1V1.9a3.4,3.4,0,0,1,1,.1c.1-.6.1-1.3.2-1.9a2.2,2.2,0,0,1,.8.1c-.1.6-.1,1.3-.2,1.9a9.852,9.852,0,0,1,1.7.2,1.268,1.268,0,0,1-.1.6c-.6-.1-1.1-.1-1.7-.2-.1,1.1-.2,2.3-.3,3.4-.1.7,0,1.5.8,1.5a2.442,2.442,0,0,0,.7-.1Z"/>
            <path id="Path_1104" data-name="Path 1104" class="cls-4" d="M42.2,3.3c-.1-.1-.3-.1-.7-.2a1.515,1.515,0,0,0-1.2.4,3.323,3.323,0,0,0-.7,1.6c-.1,1.1-.3,2.2-.4,3.2-.2,0-.5-.1-.7-.1.2-2,.5-4,.7-6,.2,0,.5.1.7.1,0,.4-.1.7-.1,1.1a1.624,1.624,0,0,1,1.8-1c.4.1.7.2.7.2C42.3,2.9,42.2,3.1,42.2,3.3Z"/>
            <path id="Path_1105" data-name="Path 1105" class="cls-4" d="M46.8,9.5c-.2,0-.5-.1-.7-.1.1-.3.1-.6.2-.8a3.659,3.659,0,0,1-2.3.5A1.9,1.9,0,0,1,42.2,7c.1-1,1.1-1.6,2.8-1.4a11.019,11.019,0,0,0,1.8.2.367.367,0,0,1,.1-.3,1.544,1.544,0,0,0-1.5-1.9,3.2,3.2,0,0,0-2,.2c-.1-.2-.1-.4-.2-.5A4.915,4.915,0,0,1,45.5,3a2.873,2.873,0,0,1,1.9,1,2.367,2.367,0,0,1,.3,2A35.771,35.771,0,0,0,46.8,9.5Zm-.1-3.1c-.6-.1-1.2-.1-1.8-.2-1.4-.1-1.9.3-2,1-.1.6.3,1.3,1.3,1.5a2.492,2.492,0,0,0,2.2-.8Q46.55,7,46.7,6.4Z"/>
            <path id="Path_1106" data-name="Path 1106" class="cls-4" d="M49.5,10c-.2,0-.5-.1-.7-.1.6-3,1.2-5.9,1.8-8.8.3.1.5.1.8.2C50.8,4.2,50.1,7.1,49.5,10Z"/>
          </g>
        </g>
      </g>
      <g class="cls-8" transform="matrix(1, 0, 0, 1, -13, 401)">
        <ellipse id="small_circle-2" data-name="small_circle" class="cls-2" cx="116.5" cy="118.5" rx="116.5" ry="118.5" transform="translate(54.9 53.9)"/>
      </g>
    </g>
  </g>
</svg>
